<?xml version="1.0" standalone="no"?>
<!DOCTYPE svg PUBLIC "-//W3C//DTD SVG 1.1//EN" "http://www.w3.org/Graphics/SVG/1.1/DTD/svg11.dtd" >
<svg xmlns="http://www.w3.org/2000/svg">
<metadata>
<json>
<![CDATA[
{
	"fontFamily": "deposittemplates",
	"majorVersion": 1,
	"minorVersion": 0,
	"version": "Version 1.0",
	"fontId": "deposittemplates",
	"psName": "deposittemplates",
	"subFamily": "Regular",
	"fullName": "deposittemplates",
	"description": "Font generated by IcoMoon."
}
]]>
</json>
</metadata>
<defs>
<font id="deposittemplates" horiz-adv-x="1024">
<font-face units-per-em="1024" ascent="960" descent="-64" />
<missing-glyph horiz-adv-x="1024" />
<glyph unicode="&#x20;" horiz-adv-x="512" d="" />
<glyph unicode="&#xe900;" glyph-name="group-0" data-tags="group-0" horiz-adv-x="1280" d="M640 768v-640c42.022 0 83.636 8.278 122.46 24.358 38.822 16.082 74.1 39.652 103.816 69.366 29.714 29.716 53.284 64.994 69.366 103.816 16.080 38.824 24.358 80.438 24.358 122.46s-8.278 83.636-24.358 122.458c-16.082 38.824-39.652 74.102-69.366 103.816-29.716 29.716-64.994 53.286-103.816 69.368-38.824 16.080-80.438 24.358-122.46 24.358zM0 448l320.004-320 320.002 320-320.002 320-320.004-320zM960 448c0-42.022 8.276-83.636 24.358-122.46 16.080-38.826 39.652-74.1 69.366-103.816 29.716-29.714 64.99-53.286 103.816-69.366 38.824-16.082 80.438-24.358 122.46-24.358v640c-84.87 0-166.262-33.716-226.276-93.726-60.010-60.012-93.724-141.404-93.724-226.274z" />
<glyph unicode="&#xe901;" glyph-name="360-degrees-0" data-tags="degrees-0" horiz-adv-x="1280" d="M992 832c-88.26 0-158.2-71.78-158.2-160v-448c0-88.22 71.74-160 158.2-160s158.2 71.78 158.2 160v448c1.8 88.22-70 160-158.2 160zM1024 224c0-17.656-14.376-32-32-32s-32 14.4-32 32v448c0 17.6 14.4 32 32 32s32-14.4 32-32v-448zM608 576c-10.4 0-20.4-1.2-30.4-3 4.254 58.86 37.54 111.1 90.96 137.82 31.62 15.812 44.44 54.24 28.62 85.88-15.876 31.6-54.32 44.46-85.88 28.62-100.7-50.48-163.3-151.72-163.3-264.32v-337c0-88.22 71.74-160 158.2-160s158.2 71.78 158.2 160v192c3.6 88.2-68.2 160-156.4 160zM640 224c0-17.656-14.376-32-32-32s-32 14.4-32 32v192c0 17.6 14.4 32 32 32s32-14.4 32-32v-192zM1216 960c-35.34 0-62.2-28.66-62.2-64s28.66-64 62.2-64 64 28.66 64 64-28.6 64-64 64zM236.4 564.8l105.82 169.34c12.38 19.66 12.98 44.54 1.78 64.9-11.4 20.34-32.8 32.96-56 32.96h-224c-35.38 0-64-28.66-64-64s28.62-64 64-64h108.5l-98.74-158c-12.38-19.8-13-44.6-1.76-65 11.32-20.4 32.76-33 56-33h39.56c48.84 0 88.44-39.6 88.44-88.4v-79.12c0-48.88-39.6-88.48-88.44-88.48-19.75 0-37.5 10.968-46.32 28.62-15.876 31.62-54.24 44.56-85.88 28.6-31.62-15.812-44.44-54.24-28.62-85.84 30.7-59.58 92.32-99.38 160.82-99.38 119.24 0 216.44 97 216.44 216.4v79.2c0 95.2-61.8 176.4-147.6 205.2z" />
<glyph unicode="&#xe902;" glyph-name="360-degrees-1" data-tags="degrees-1" horiz-adv-x="1280" d="M992 832c-88.26 0-158.2-71.78-158.2-160v-448c0-88.22 71.74-160 158.2-160s158.2 71.78 158.2 160v448c1.8 88.22-70 160-158.2 160zM1056 224c0-35.28-28.68-64-64-64s-64 28.72-64 64v448c0 35.28 28.68 64 64 64s64-28.72 64-64v-448zM608 576c-22.8 0-44.4-5-64-13.6v4.2c0 73.54 46.38 140.1 121 173.68 24.18 10.906 34.94 39.32 24.060 63.46-10.876 24.18-39.5 34.88-63.44 24.1-109.62-49.38-177.62-149.44-177.62-261.24v-342.6c0-88.22 71.74-160 158.2-160s158.2 71.78 158.2 160v192c3.6 88.2-68.2 160-156.4 160zM672 224c0-35.28-28.68-64-64-64s-64 28.72-64 64v192c0 35.28 28.68 64 64 64s64-28.72 64-64v-192zM1216 960c-35.34 0-62.2-28.66-62.2-64s28.66-64 62.2-64 64 28.66 64 64-28.6 64-64 64zM197.5 543.8l131.44 215.2c9.060 14.78 9.46 33.34 0.86 48.46-8.4 15.16-24.4 24.54-41.8 24.54h-240c-26.5 0-48-21.5-48-48s21.5-48 48-48h154.44l-131.38-215c-9.060-14.8-9.44-33.4-0.94-48.4 8.5-15.2 24.5-24.6 41.88-24.6h78.060c53.94 0 97.94-42.2 97.94-96.2v-92.18c0-55.62-44-99.62-97.94-99.62-32.82 0-63.24 16.312-81.44 43.6l-20.68 31.040c-14.688 22.060-44.44 28.040-66.56 13.312-22.060-14.718-28-44.5-13.312-66.56l20.68-31.040c36.072-54.152 96.372-86.352 161.312-86.352 106.94 0 193.94 87 193.94 194v93.8c0 102.8-83 188.2-186.5 192z" />
<glyph unicode="&#xe903;" glyph-name="360-degrees-2" data-tags="degrees-2" horiz-adv-x="1280" d="M992 832c-88.24 0-158.2-71.78-158.2-160v-448c0-88.22 71.76-160 158.2-160s158.2 71.78 158.2 160v448c1.8 88.22-70 160-158.2 160zM1088 224c0-52.94-43.060-96-94.2-96-52.94 0-94.2 43.060-94.2 96v448c0 52.94 43.060 96 94.2 96 52.94 0 94.2-43.060 94.2-96v-448zM608 576c-36.2 0-69.2-12.6-96-32.8v7.6c0 93.56 59.060 178.1 146.88 210.4l24.12 8.844c16.624 6.062 25.12 24.44 19.062 41.040-6.062 16.624-24.62 25.12-41.060 19.032l-24.202-8.936c-113-41.4-188.8-149.98-188.8-270.38v-326.8c0-88.22 71.76-160 158.2-160s158.2 71.78 158.2 160v192c3.6 88.2-68.2 160-156.4 160zM704 224c0-52.94-43.060-96-94.2-96-52.94 0-94.2 43.060-94.2 96v192c0 52.94 43.060 96 94.2 96 52.94 0 96-43.060 96-96v-192zM1216 960c-35.34 0-62.2-28.66-62.2-64s28.66-64 62.2-64c35.4 0 64 28.66 64 64s-28.6 64-64 64zM162.88 544l190.060 234.2c7.66 11.34 9.26 24.48 3.86 35.62-5.2 11.12-16.4 18.18-28.8 18.18h-296c-17.678 0-31.991-14.32-31.991-32s14.313-32 31.991-32h229.2l-190.12-234.2c-7.688-9.594-9.25-22.76-3.938-33.88s16.558-19.92 28.858-19.92h65.44c87.44 0 158.56-71.12 158.56-158.56v-34.88c0-87.36-71.2-158.56-158.56-158.56-43.060 0-82.94 21.28-101.62 54.22-8.75 15.406-28.32 20.76-43.62 12.032-15.374-8.75-20.74-28.28-10.2-43.66 28.5-53.392 88.76-86.592 155.44-86.592 122.74 0 222.6 99.84 222.6 222.6v34.8c-0.040 122.2-99.040 221.8-221.16 222.6z" />
<glyph unicode="&#xe904;" glyph-name="360-degrees-3" data-tags="degrees-3" horiz-adv-x="1280" d="M158.38 544h-44.2l218.2 261.8c3.938 4.782 4.812 11.406 2.188 17.032s-8.368 9.168-14.568 9.168h-304c-8.812 0-16-7.16-16-16s7.188-16 16-16h269.8l-218.12-261.8c-3.92-4.8-4.8-11.4-2.18-17s8.32-9.2 14.5-9.2h78.38c106.82 0 193.62-86.8 193.62-193.6v-28.76c0-106.84-86.8-193.64-193.62-193.64-54.24 0-104.76 25.82-128.62 65.82-4.562 7.594-14.5 10.094-21.94 5.532-7.624-4.532-10.062-14.376-5.562-21.96 29.982-50.192 89.802-81.392 156.122-81.392 124.42 0 225.62 101.2 225.62 225.6v28.76c0 124.44-101.2 225.64-225.62 225.64zM992 832c-88.26 0-158.2-71.78-158.2-160v-448c0-88.22 71.74-160 158.2-160s158.2 71.78 158.2 160v448c1.8 88.22-70 160-158.2 160zM1120 224c0-70.6-57.44-128-128-128s-128 57.4-128 128v448c0 70.6 57.44 128 128 128s128-57.4 128-128v-448zM608 544c-52.54 0-98.82-25.78-128-64.98v77.98c0 103.94 66.32 195.56 165.060 228l47.94 15.75c8.376 2.75 12.938 11.782 10.188 20.18-2.688 8.344-11.5 13-20.18 10.188l-48.008-15.678c-111.8-36.72-187-140.64-187-258.44v-333c0-88.22 71.74-160 158.2-160s158.2 71.78 158.2 160l3.6 160c0 88.2-71.8 160-160 160zM736 224c0-70.6-57.44-128-128-128s-128 57.4-128 128v160c0 70.6 57.44 128 128 128s128-57.4 128-128v-160zM1216 960c-35.34 0-62.2-28.66-62.2-64s28.66-64 62.2-64c35.4 0 64 28.66 64 64s-28.6 64-64 64zM1216 864c-17.644 0-32 14.356-32 32s14.356 32 32 32 32-14.356 32-32-14.4-32-32-32z" />
<glyph unicode="&#xe905;" glyph-name="a-0" data-tags="a-0" horiz-adv-x="768" d="M763 88.6l-320 768c-9.8 23.84-33.2 39.38-59 39.38s-49.2-15.54-59-39.38l-320-768c-13.594-32.62 1.812-70.1 34.44-83.68 32.76-13.656 70.16 1.844 83.68 34.44l63.6 152.62h394.6l63.6-152.62c10.218-24.56 34.040-39.4 59.1-39.4 8.188 0 16.532 1.594 24.6 4.968 32.58 13.672 47.98 51.072 34.38 83.672zM238.2 320l145.8 345.6 144-345.6h-289.8z" />
<glyph unicode="&#xe906;" glyph-name="a-1" data-tags="a-1" horiz-adv-x="768" d="M764.2 66.6l-336 800c-14.938 35.62-73.56 35.62-88.5 0l-336-800c-10.282-24.44 1.219-52.6 25.66-62.84 24.5-10.312 52.6 1.219 62.84 25.66l67.58 160.9h448.4l67.58-160.9c7.64-18.42 25.44-29.42 44.24-29.42 6.188 0 12.5 1.188 18.562 3.75 24.438 10.25 36.038 38.45 25.638 62.85zM200.2 286.4l183.8 439.4 183.84-437.8h-367.64z" />
<glyph unicode="&#xe907;" glyph-name="a-2" data-tags="a-2" horiz-adv-x="768" d="M765.4 44.6l-352 833.56c-8.2 23.8-48.94 23.8-58.94 0l-351.926-833.56c-6.874-16.282 0.719-35.060 17-42.020 16.156-6.638 35.040 0.751 41.94 17.096l72.96 172.78h499.2l72.96-172.78c5.006-12.276 17.006-19.676 27.606-19.676 4.156 0 8.406 0.814 12.468 2.504 18.132 6.896 25.732 25.696 18.732 42.096zM161.5 256.6l222.5 526.8 222.4-527h-444.9z" />
<glyph unicode="&#xe908;" glyph-name="a-3" data-tags="a-3" horiz-adv-x="768" d="M766.8 22.2l-368 864.88c-5 11.886-24.44 11.886-29.44 0l-368.072-864.88c-3.468-8.132 0.312-17.516 8.438-21.020 8.25-3.19 17.53 0.313 21 8.508l91.26 214.4h524l91.26-214.4c2.554-6.088 8.554-9.688 12.954-9.688 2.094 0 4.218 0.438 6.282 1.251 9.918 3.549 13.718 12.949 10.318 20.949zM135.6 256.2l248.4 583.78 248.4-583.8h-496.8z" />
<glyph unicode="&#xe909;" glyph-name="abacus-0" data-tags="abacus-0" horiz-adv-x="1152" d="M1056 896h-960c-53.020 0-96-42.98-96-96v-704c0-53 42.98-96 96-96h960c53.020 0 96 42.98 96 96v704c0 53.020-43 96-96 96zM256 432h-32c-17.6 0-32-14.4-32-32v-32c0-17.672 14.328-32 32-32h32v-48h-32c-17.6 0-32-14.4-32-32v-32c0-17.672 14.328-32 32-32h32v-64h-128v352h128v-48zM256 704h-32c-17.6 0-32-14.4-32-32v-32c0-17.672 14.328-32 32-32h32v-64h-128v224h126.2l1.8-64zM512 432h-32c-17.6 0-32-14.4-32-32v-32c0-17.672 14.328-32 32-32h32v-48h-32c-17.6 0-32-14.4-32-32v-32c0-17.672 14.328-32 32-32h32v-64h-192v64h32c17.672 0 32 14.328 32 32v32c0 17.672-14.328 32-32 32h-32v48h32c17.672 0 32 14.328 32 32v32c0 17.672-14.328 32-32 32h-32v48h192v-48zM512 704h-32c-17.6 0-32-14.4-32-32v-32c0-17.672 14.328-32 32-32h32v-64h-192v64h32c17.6 0 32 14.4 32 32v32c0 17.672-14.328 30.2-32 30.2l-32 1.8v62.2h192v-62.2zM832 288h-32c-17.672 0-32-14.328-32-32v-32c0-17.672 14.328-32 32-32h32v-64h-256v64h32c17.672 0 32 14.328 32 32v32c0 17.672-14.328 32-32 32h-32v48h32c17.672 0 32 14.328 32 32v32c0 17.672-14.328 32-32 32h-32v48h256v-192zM832 704h-32c-17.6 0-32-14.4-32-32v-32c0-17.672 14.328-32 32-32h32v-64h-256v64h32c17.6 0 32 14.4 32 32v32c0 17.672-14.328 30.2-32 30.2l-32 1.8v64h256v-64zM1024 128h-128v64h32c17.672 0 32 14.328 32 32v32c0 17.672-14.328 32-32 32h-32v192h128v-352zM1024 544h-128v64h32c17.6 0 32 14.4 32 32v32c0 17.672-14.328 30.2-32 30.2l-32 1.8v64h128v-224z" />
<glyph unicode="&#xe90a;" glyph-name="abacus-1" data-tags="abacus-1" horiz-adv-x="1152" d="M1024 896h-896c-70.7 0-128-57.3-128-128v-640c0-70.7 57.3-128 128-128h896c70.7 0 128 57.3 128 128v640c0 70.7-57.4 128-128 128zM256 432h-32c-17.6 0-32-14.4-32-32v-32c0-17.672 14.328-32 32-32h32v-48h-32c-17.6 0-32-14.4-32-32v-32c0-17.672 14.328-32 32-32h32v-96h-128c-17.674 0-32 14.326-32 32v352h160v-48zM256 704h-32c-17.6 0-32-14.4-32-32v-32c0-17.672 14.328-32 32-32h32v-64h-160v224c0 17.674 14.326 32 32 32h128v-96zM512 432h-32c-17.6 0-32-14.4-32-32v-32c0-17.672 14.328-32 32-32h32v-48h-32c-17.6 0-32-14.4-32-32v-32c0-17.672 14.328-32 32-32h32v-96h-192v96h32c17.672 0 32 14.328 32 32v32c0 17.672-14.328 32-32 32h-32v48h32c17.672 0 32 14.328 32 32v32c0 17.672-14.328 32-32 32h-32v48h192v-48zM512 704h-32c-17.6 0-32-14.4-32-32v-32c0-17.672 14.328-32 32-32h32v-64h-192v64h32c17.6 0 32 14.4 32 32v32c0 17.672-14.328 30.2-32 30.2l-32 1.8v96h192v-96zM832 288h-32c-17.672 0-32-14.328-32-32v-32c0-17.672 14.328-32 32-32h32v-96h-256v96h32c17.672 0 32 14.328 32 32v32c0 17.672-14.328 32-32 32h-32v48h32c17.672 0 32 14.328 32 32v32c0 17.672-14.328 32-32 32h-32v48h256v-192zM832 704h-32c-17.6 0-32-14.4-32-32v-32c0-17.672 14.328-32 32-32h32v-64h-256v64h32c17.6 0 32 14.4 32 32v32c0 17.672-14.328 30.2-32 30.2l-32 1.8v96h256v-96zM1024 96h-128v96h32c17.672 0 32 14.328 32 32v32c0 17.672-14.328 32-32 32h-32v192h160v-352c0-17.6-14.4-32-32-32zM1056 544h-160v64h32c17.6 0 32 14.4 32 32v32c0 17.672-14.328 30.2-32 30.2l-32 1.8v96h128c17.674 0 32-14.326 32-32v-224z" />
<glyph unicode="&#xe90b;" glyph-name="abacus-2" data-tags="abacus-2" horiz-adv-x="1152" d="M1024 896h-896c-70.7 0-128-57.3-128-128v-640c0-70.7 57.3-128 128-128h896c70.7 0 128 57.3 128 128v640c0 70.7-57.4 128-128 128zM1024 832c35.28 0 64-28.72 64-64v-192h-192v62.2l32 1.8c17.6 0 32 14.4 32 32s-14.312 30.2-32 30.2l-32 1.8v128h128zM832 832v-128h-32c-17.688 0-32-14.312-32-30.2s14.4-33.8 32-33.8l30.2-0.001 1.8-63.999h-256v62.2l32 1.8c17.6 0 32 14.4 32 32s-14.312 30.2-32 30.2l-32 1.8v128h256zM512 832v-128h-32c-17.6 0-32-14.4-32-32s14.4-32 32-32l30.2-0.001 1.8-63.999h-192v62.2l32 1.8c17.6 0 32 14.4 32 32s-14.4 32-32 32h-32v128h192zM64 768c0 35.28 28.72 64 64 64h128v-128h-32c-17.6 0-32-14.4-32-32s14.4-32 32-32l30.2-0.001 1.8-63.999h-192v192zM128 64c-35.28 0-64 28.72-64 64v384h192v-128h-32c-17.6 0-32-14.4-32-32s14.4-32 32-32l30.2-0.001v-64l-30.2 0.001c-17.6 0-32-14.4-32-32s14.312-32 32-32h32v-128h-128zM320 64v128h32c17.688 0 32 14.312 32 32s-14.4 32-32 32l-30.2-0.001v64l30.2 0.001c17.6 0 32 14.4 32 32s-14.4 32-32 32h-32v128h192v-128h-32c-17.6 0-32-14.4-32-32s14.4-32 32-32l30.2-0.001v-64l-30.2 0.001c-17.6 0-32-14.4-32-32s14.312-32 32-32h32v-128h-192zM576 64v128h32c17.688 0 32 14.312 32 32s-14.4 32-32 32l-30.2-0.001v64l30.2 0.001c17.688 0 32 14.312 32 32s-14.312 30.2-32 30.2l-32 1.8v128h256v-256h-32c-17.688 0-32-14.312-32-32s14.312-32 32-32h32v-128h-256zM1088 128c0-35.28-28.72-64-64-64h-128v128h32c17.688 0 32 14.312 32 32s-14.4 32-32 32l-30.2-0.001-1.8 256.001h192v-384z" />
<glyph unicode="&#xe90c;" glyph-name="abacus-3" data-tags="abacus-3" horiz-adv-x="1152" d="M1024 896h-896c-70.7 0-128-57.3-128-128v-640c0-70.7 57.3-128 128-128h896c70.7 0 128 57.3 128 128v640c0 70.7-57.4 128-128 128zM848 864v-96h-16c-35.34 0-64-28.66-64-64s28.66-62.2 62.2-62.2l17.8-1.8v-80h-288v80l16 0.001c35.4-0.001 64 28.599 64 63.999s-28.66 64-64 64h-16v96h288zM928 704c0-17.674-14.326-32-30.2-32h-67.6c-17.674 0-30.2 14.328-30.2 32s14.326 30.2 30.2 30.2h64c19.4 1.8 33.8-12.6 33.8-30.2zM480 704c0 17.674 14.326 30.2 30.2 30.2h64c17.674 0 30.2-14.326 30.2-30.2s-14.326-32-30.2-32h-64c-15.8 0-30.2 14.4-30.2 32zM528 864v-96h-16c-35.34 0-64-28.66-64-64s28.66-62.2 62.2-62.2l17.8-1.8v-80h-224v80l16 0.001c35.4-0.001 64 28.599 64 63.999s-28.6 64-64 64h-16v96h224zM224 704c0 17.674 14.326 30.2 30.2 30.2h64c19.4 1.8 33.8-12.6 33.8-30.2s-14.4-32-32-32h-64c-17.6 0-32 14.4-32 32zM32 768c0 53.020 42.98 96 96 96h144v-96h-17.8c-33.6 0-62.2-28.6-62.2-64s28.66-62.2 62.2-62.2l17.8-1.8v-80h-240v208zM128 32c-53.020 0-96 42.98-96 96v400h240v-80h-17.8c-33.6 0-62.2-28.6-62.2-64s28.66-62.2 62.2-62.2l17.8-1.8v-64l-16 0.001c-35.4-0.001-64-28.601-64-64.001s28.66-62.2 62.2-62.2l17.8-1.8v-96h-144zM352 384c0-17.674-14.326-32-30.2-32h-64c-19.4 0-33.8 14.4-33.8 32s14.326 30.2 30.2 30.2h64c19.4 1.8 33.8-12.6 33.8-30.2zM352 192c0-17.674-14.326-32-30.2-32h-64c-19.4 0-33.8 14.4-33.8 32s14.326 30.2 30.2 30.2h64c19.4 1.8 33.8-12.6 33.8-30.2zM304 32v96l16 0.001c35.4-0.001 64 28.599 64 63.999s-28.66 64-62.2 64h-17.8v64l16 0.001c35.4-0.001 64 28.599 64 63.999s-28.66 64-62.2 64h-17.8v80h224v-80h-17.8c-33.6 0-62.2-28.6-62.2-64s28.66-62.2 62.2-62.2l17.8-1.8v-64l-16 0.001c-35.4-0.001-64-28.601-64-64.001s28.66-62.2 64-62.2l16-0.001v-96h-224zM608 384c0-17.674-14.326-32-30.2-32h-67.6c-15.8 0-30.2 14.4-30.2 32s14.326 30.2 30.2 30.2h64c19.4 1.8 33.8-12.6 33.8-30.2zM608 192c0-17.674-14.326-32-30.2-32h-67.6c-17.674 0-30.2 14.328-30.2 32s14.326 30.2 30.2 30.2h64c19.4 1.8 33.8-12.6 33.8-30.2zM560 32v96h16c35.34 0 64 28.66 64 62.2s-28.66 64-62.2 64l-17.8 1.8v64l16 0.001c35.4-0.001 64 28.599 64 63.999s-28.66 64-62.2 64h-17.8v80h288v-272l-16 0.001c-35.4-0.001-64-28.601-64-64.001s28.66-62.2 64-62.2l16-0.001v-96h-288zM928 192c0-17.674-14.326-32-30.2-32h-67.6c-17.674 0-30.2 14.328-30.2 32s14.326 30.2 30.2 30.2h64c19.4 1.8 33.8-12.6 33.8-30.2zM1120 128c0-53.020-42.98-96-96-96h-144v96h16c35.34 0 64 28.66 64 62.2s-28.66 64-62.2 64l-17.8 1.8v272h240v-400zM880 560v80l16 0.001c35.4-0.001 64 28.599 64 63.999s-28.66 64-64 64l-16-0.001v96h144c53.020 0 96-42.98 96-96v-208h-240z" />
<glyph unicode="&#xe90d;" glyph-name="abstract-award-0" data-tags="abstract-award-0" d="M512 849.613c-0.091 0-0.199 0-0.307 0-154.647 0-280.013-125.366-280.013-280.013s125.366-280.013 280.013-280.013c154.647 0 280.013 125.366 280.013 280.012v0c0 0.061 0 0.133 0 0.205 0 154.498-125.216 279.75-279.7 279.808h-0.005zM512 870.4c-0.091 0-0.199 0-0.307 0-166.127 0-300.8-134.673-300.8-300.8s134.673-300.8 300.8-300.8c166.127 0 300.8 134.673 300.8 300.8v0c-0.087 165.984-134.533 300.538-300.468 300.8h-0.025zM512 273.613c-0.106 0-0.232 0-0.358 0-163.497 0-296.038 132.541-296.038 296.038s132.541 296.038 296.038 296.038c163.497 0 296.038-132.541 296.038-296.038 0-0.018 0-0.036 0-0.053v0.002c-0.116-163.314-132.389-295.696-295.652-295.987h-0.028zM872.858 517.581c2.202 15.36 28.365 39.424 28.262 54.886s-26.675 39.219-29.082 54.426 15.36 46.080 10.803 60.826-37.018 29.594-43.827 43.418 1.28 48.589-7.526 61.44-44.134 17.357-54.682 28.57-13.107 46.797-25.242 56.32-47.258 3.584-60.672 11.213-26.368 40.96-40.96 46.387-45.773-10.906-61.133-7.373-37.12 31.232-52.48 32.307-40.96-23.654-56.32-24.934-44.8 18.842-59.853 15.309-32.256-34.765-46.387-40.499-48.333 4.813-61.44-2.97-20.48-42.752-32.563-52.48-47.616-9.574-58.010-20.992-7.066-46.899-15.667-59.699-42.65-23.245-49.254-37.171 7.066-46.95 2.611-61.44-33.946-34.816-35.84-50.074 20.48-42.752 20.48-58.214-22.579-43.52-20.173-58.726 32.256-34.816 36.915-49.51-8.448-47.872-1.69-61.798 40.96-23.706 49.818-36.403 5.99-48.23 16.589-59.443 46.080-10.598 58.317-20.122c10.752-8.448 18.176-36.762 29.030-48.333l-99.942-238.95 135.219 58.214 48.282-115.763 113.254 256.768 0.768-0.461 122.88-256.307 50.483 130.918 127.539-49.408-112.64 237.107c15.002 5.683 46.080 1.638 57.395 10.701 11.981 9.728 13.978 45.312 24.371 56.678s45.67 16.64 54.221 29.44 0 47.411 6.605 61.44 38.758 29.338 43.162 44.134-13.773 45.261-11.622 60.57zM512 238.592c-0.107 0-0.232 0-0.358 0-182.811 0-331.008 148.197-331.008 331.008s148.197 331.008 331.008 331.008c182.811 0 331.008-148.197 331.008-331.008v0c-0.116-182.638-148.040-330.687-330.618-331.008h-0.031z" />
<glyph unicode="&#xe90e;" glyph-name="abstract-badge-0" data-tags="abstract-badge-0" d="M963.738 329.677c8.55 32.768 60.262 87.603 60.262 121.242s-52.685 87.859-61.44 120.474 8.653 105.882-8.397 135.117-89.549 49.766-113.613 73.574-45.466 96-74.854 112.64-102.4-1.638-135.168 6.912-87.808 60.365-121.446 60.365-87.859-52.685-120.474-61.44-105.882 8.653-135.117-8.448-49.766-89.702-73.574-113.766-96-45.414-112.64-74.854 1.638-102.4-6.912-135.168-60.365-87.603-60.365-121.242 52.685-87.859 61.44-120.525-8.653-105.83 8.448-135.066 89.549-49.766 113.613-73.574 45.414-96 74.854-112.64 102.4 1.69 135.168-6.861 87.757-60.416 121.344-60.416 87.91 52.685 120.525 61.44 105.882-8.653 135.117 8.448 49.766 89.549 73.523 113.613 96.051 45.466 112.64 74.854-1.485 102.605 7.066 135.322zM512 23.91c-234.218 0-424.090 189.871-424.090 424.090s189.871 424.090 424.090 424.090c234.218 0 424.090-189.871 424.090-424.090v0c-0.291-234.101-189.988-423.798-424.061-424.090h-0.028zM512 825.805c-208.656 0-377.805-169.149-377.805-377.805s169.149-377.805 377.805-377.805c208.656 0 377.805 169.149 377.805 377.805v0c-0.233 208.562-169.243 377.572-377.783 377.805h-0.022zM512 864.614c-230.090 0-416.614-186.525-416.614-416.614s186.525-416.614 416.614-416.614c230.090 0 416.614 186.525 416.614 416.614v0c-0.262 229.985-186.63 416.353-416.59 416.614h-0.025zM512 46.746c-221.607 0-401.254 179.648-401.254 401.254s179.648 401.254 401.254 401.254c221.607 0 401.254-179.648 401.254-401.254v0c-0.233-221.513-179.741-401.021-401.232-401.254h-0.022z" />
<glyph unicode="&#xe90f;" glyph-name="abstract-bookmark-0" data-tags="abstract-bookmark-0" d="M911.36 939.52v-967.373l-399.104 239.053-10.547-6.298-389.069-232.755v967.373h798.72zM931.84 960h-839.68v-1024l419.84 251.341 419.84-251.341v1024zM134.656 938.803h10.24v-20.48h-10.24v20.48zM144.896 82.227h-10.24v41.83h10.24zM144.896 165.837h-10.24v41.83h10.24zM144.896 249.446h-10.24v41.779h10.24zM144.896 333.056h-10.24v41.779h10.24zM144.896 416.666h-10.24v41.574h10.24zM144.896 500.275h-10.24v41.779h10.24zM144.896 583.885h-10.24v41.779h10.24zM144.896 667.494h-10.24v41.626h10.24zM144.896 751.104h-10.24v41.779h10.24zM144.896 834.714h-10.24v41.779h10.24zM134.656 10.854v29.594h10.24v-11.418l9.728 5.888 5.325-8.755-25.293-15.309zM197.376 48.64l-5.12 8.755 37.427 22.682 5.12-8.755zM272.333 94.003l-5.12 8.755 37.478 22.733 5.12-8.755zM347.238 139.418l-5.12 8.755 37.427 22.682 5.12-8.755zM422.195 184.832l-5.12 8.755 37.478 22.682 5.12-8.755zM526.848 230.451l-14.848 9.011-14.899-9.011-5.274 8.755 20.173 12.237 20.173-12.237-5.325-8.755zM826.573 48.64l-37.427 22.682 5.12 8.755 37.478-22.682zM751.667 94.003l-37.478 22.733 5.12 8.755 37.427-22.733zM676.71 139.418l-37.478 22.682 5.12 8.755 37.478-22.682zM601.805 184.832l-37.478 22.682 5.12 8.755 37.478-22.682zM889.344 10.854l-25.293 15.309 5.325 8.755 9.728-5.888v11.418h10.24v-29.594zM889.344 82.227h-10.24v41.83h10.24zM889.344 165.837h-10.24v41.83h10.24zM889.344 249.446h-10.24v41.779h10.24zM889.344 333.056h-10.24v41.779h10.24zM889.344 416.666h-10.24v41.574h10.24zM889.344 500.275h-10.24v41.779h10.24zM889.344 583.885h-10.24v41.779h10.24zM889.344 667.494h-10.24v41.626h10.24zM889.344 751.104h-10.24v41.779h10.24zM889.344 834.714h-10.24v41.779h10.24zM879.104 938.803h10.24v-20.48h-10.24v20.48z" />
<glyph unicode="&#xe910;" glyph-name="abstract-circle-0" data-tags="abstract-circle-0" d="M512 960c-282.77 0-512-229.23-512-512s229.23-512 512-512c282.77 0 512 229.23 512 512v0c0 282.77-229.23 512-512 512v0zM1008.64 469.658l-30.72 33.126-2.509 23.91 30.72-33.126zM1003.52 520.090l-33.792 29.798-5.12 23.552 33.946-29.798zM993.843 569.088l-36.403 26.163-7.27 22.938 36.762-26.214zM979.456 616.294l-39.168 22.374-9.523 22.067 39.219-22.374zM934.707 381.44c2.644-0.231 4.703-2.435 4.703-5.12 0-2.838-2.301-5.138-5.138-5.138-0.153 0-0.305 0.007-0.455 0.020l0.019-0.001h-0.819c-2.462 0.401-4.318 2.512-4.318 5.057 0 0.294 0.025 0.581 0.072 0.861l-0.004-0.030c0.354 2.513 2.49 4.426 5.073 4.426 0.306 0 0.606-0.027 0.897-0.078l-0.031 0.005zM928.614 519.68c-0.039 0.237-0.061 0.511-0.061 0.79 0 2.524 1.826 4.621 4.229 5.043l0.031 0.004c0.262 0.047 0.563 0.073 0.87 0.073 2.868 0 5.193-2.325 5.193-5.193 0-2.561-1.853-4.689-4.292-5.115l-0.031-0.005h-0.87c-2.575 0-4.705 1.901-5.065 4.376l-0.003 0.028zM937.779 490.086c0.13 0.012 0.282 0.018 0.435 0.018 2.838 0 5.138-2.301 5.138-5.138 0-2.685-2.059-4.889-4.684-5.119l-0.019-0.001h-0.461c-0.008 0-0.017 0-0.026 0-2.647 0-4.826 2.009-5.092 4.586l-0.002 0.022c-0.006 0.097-0.010 0.209-0.010 0.323 0 2.687 2.070 4.891 4.702 5.103l0.018 0.001zM960.819 661.658l-41.267 18.381-11.622 21.043 40.96-18.381zM917.453 584.858c-0.502-0.188-1.082-0.3-1.686-0.307h-0.003c-2.194 0.032-4.050 1.438-4.75 3.395l-0.011 0.036c-0.187 0.51-0.295 1.1-0.295 1.714 0 2.828 2.292 5.12 5.12 5.12s5.12-2.292 5.12-5.12c0-2.227-1.421-4.121-3.406-4.826l-0.036-0.011zM910.694 744.55l-43.981 10.24-15.36 18.381 43.981-10.24zM843.315 185.498c0.945 1.219 2.41 1.996 4.056 1.996 2.828 0 5.12-2.292 5.12-5.12s-2.292-5.12-5.12-5.12c-0.040 0-0.080 0-0.12 0.001h0.006c-1.182 0.004-2.27 0.408-3.134 1.084l0.011-0.009c-1.175 0.946-1.92 2.384-1.92 3.997 0 1.203 0.415 2.308 1.109 3.182l-0.008-0.011zM843.315 718.387c0.858 0.671 1.952 1.076 3.14 1.076 1.601 0 3.031-0.735 3.969-1.886l0.007-0.009c0.701-0.869 1.125-1.986 1.125-3.203 0-1.623-0.756-3.070-1.934-4.008l-0.010-0.008c-0.872-0.673-1.971-1.091-3.166-1.126h-0.008c-1.615 0.008-3.052 0.762-3.986 1.935l-0.008 0.010c-0.632 0.842-1.012 1.905-1.012 3.057 0 1.709 0.837 3.222 2.124 4.152l0.015 0.010zM845.466 816.077l-45.158 1.434-18.483 15.002 45.107-1.382zM801.178 763.034c-0.942-1.068-2.312-1.739-3.84-1.741v0c-0.002 0-0.003 0-0.005 0-1.29 0-2.461 0.507-3.325 1.333l0.002-0.002c-1.049 0.942-1.705 2.302-1.705 3.815 0 1.309 0.491 2.504 1.3 3.409l-0.004-0.005c0.942 1.279 2.442 2.099 4.134 2.099 2.828 0 5.12-2.292 5.12-5.12 0-1.5-0.645-2.849-1.672-3.785l-0.004-0.004zM807.987 846.899l-45.056-3.021-20.122 13.158 45.056 3.021zM767.386 111.36c0.923 0.906 2.189 1.466 3.586 1.466 2.828 0 5.12-2.292 5.12-5.12 0-1.886-1.020-3.534-2.538-4.422l-0.024-0.013c-0.844-0.636-1.909-1.018-3.064-1.018-1.644 0-3.107 0.775-4.044 1.979l-0.009 0.012c-0.581 0.819-0.929 1.839-0.929 2.941 0 1.717 0.845 3.237 2.142 4.165l0.015 0.011zM765.696 792.32c0.945 1.216 2.409 1.991 4.053 1.991 1.155 0 2.221-0.382 3.077-1.028l-0.013 0.009c1.23-0.945 2.015-2.416 2.015-4.071 0-1.169-0.392-2.247-1.052-3.109l0.009 0.012c-0.946-1.19-2.394-1.946-4.018-1.946-0.028 0-0.055 0-0.083 0.001h0.004c-0.035-0.001-0.076-0.001-0.118-0.001-1.096 0-2.106 0.366-2.915 0.983l0.012-0.009c-1.138 0.946-1.858 2.362-1.858 3.946 0 1.225 0.43 2.35 1.148 3.231l-0.007-0.009zM738.304 91.187c0.776 0.498 1.723 0.794 2.739 0.794 2.828 0 5.121-2.293 5.121-5.121 0-1.812-0.941-3.404-2.361-4.314l-0.020-0.012c-0.743-0.513-1.663-0.82-2.655-0.82-0.021 0-0.041 0-0.062 0h0.003c-1.798 0.003-3.377 0.932-4.289 2.335l-0.012 0.020c-0.478 0.764-0.761 1.692-0.761 2.687 0 1.882 1.016 3.528 2.529 4.417l0.024 0.013zM736.256 812.39c0.945 1.216 2.408 1.99 4.052 1.99 2.828 0 5.12-2.292 5.12-5.12 0-0.858-0.211-1.667-0.584-2.377l0.013 0.028c-0.923-1.423-2.503-2.352-4.3-2.355v0c-0.008 0-0.018 0-0.028 0-1.002 0-1.932 0.306-2.703 0.83l0.017-0.011c-1.428 0.925-2.359 2.509-2.359 4.312 0 1.001 0.287 1.935 0.784 2.724l-0.012-0.021zM767.744 873.83l-44.544-7.424-21.299 11.11 44.544 7.424zM707.942 73.421c0.69 0.37 1.51 0.587 2.38 0.587 1.956 0 3.656-1.097 4.518-2.71l0.013-0.027c0.362-0.684 0.574-1.495 0.574-2.355 0-2.813-2.269-5.097-5.077-5.12h-0.002c-0.003 0-0.007 0-0.011 0-1.967 0-3.675 1.109-4.533 2.737l-0.013 0.028c-0.357 0.68-0.566 1.486-0.566 2.34 0 1.948 1.088 3.642 2.689 4.507l0.027 0.013zM704.973 829.901c0.862 1.683 2.585 2.816 4.572 2.816 2.828 0 5.12-2.292 5.12-5.12s-2.292-5.12-5.12-5.12c-0.023 0-0.047 0-0.070 0h0.004c-0.006 0-0.013 0-0.021 0-0.852 0-1.656 0.208-2.363 0.577l0.028-0.013c-1.629 0.879-2.716 2.573-2.716 4.521 0 0.854 0.209 1.66 0.579 2.368l-0.013-0.028zM724.531 897.178l-43.571-11.776-22.323 8.96 43.622 11.776zM675.84 58.317c0.577 0.244 1.247 0.386 1.951 0.386 2.098 0 3.901-1.261 4.692-3.067l0.013-0.033c0.244-0.577 0.386-1.247 0.386-1.951 0-2.098-1.261-3.901-3.067-4.692l-0.033-0.013c-0.558-0.259-1.211-0.41-1.9-0.41-0.016 0-0.032 0-0.048 0h0.002c-2.105 0.002-3.912 1.273-4.698 3.090l-0.013 0.033c-0.244 0.577-0.386 1.247-0.386 1.951 0 2.098 1.261 3.901 3.067 4.692l0.033 0.013zM672.205 844.749c0.804 1.839 2.607 3.1 4.705 3.1 0.704 0 1.375-0.142 1.985-0.399l-0.034 0.013c1.872-0.79 3.162-2.61 3.162-4.731 0-0.713-0.146-1.393-0.41-2.010l0.013 0.033c-0.798-1.85-2.606-3.121-4.71-3.123v0c-0.033-0.001-0.072-0.001-0.111-0.001-0.666 0-1.298 0.152-1.861 0.422l0.026-0.011c-1.802 0.819-3.032 2.603-3.032 4.675 0 0.735 0.155 1.433 0.434 2.065l-0.013-0.033zM678.707 916.070l-42.189-16.077-23.142 6.656 42.189 16.077zM642.867 45.978c0.616 0.283 1.336 0.448 2.095 0.448 2.828 0 5.12-2.292 5.12-5.12 0-2.445-1.714-4.49-4.006-4.998l-0.034-0.006c-0.473-0.152-1.017-0.245-1.581-0.256h-0.006c-0.075-0.004-0.162-0.006-0.25-0.006-2.263 0-4.182 1.468-4.859 3.503l-0.010 0.036c-0.139 0.443-0.219 0.953-0.219 1.481 0 2.322 1.546 4.283 3.664 4.91l0.036 0.009zM638.618 856.781c0.691 2.065 2.608 3.526 4.866 3.526 2.828 0 5.12-2.292 5.12-5.12 0-2.738-2.15-4.974-4.853-5.113l-0.012-0.001c-0.231-0.047-0.496-0.074-0.768-0.074s-0.537 0.027-0.794 0.078l0.026-0.004c-2.274 0.555-3.935 2.574-3.935 4.981 0 0.619 0.11 1.212 0.311 1.762l-0.011-0.036zM608.768 36.454c0.336 0.078 0.721 0.123 1.117 0.123 2.399 0 4.413-1.65 4.968-3.877l0.007-0.035c0.087-0.354 0.137-0.76 0.137-1.178 0-2.385-1.631-4.39-3.839-4.959l-0.036-0.008h-1.178c-0.177-0.021-0.381-0.034-0.589-0.034-2.846 0-5.154 2.307-5.154 5.154 0 2.639 1.983 4.815 4.541 5.118l0.024 0.002zM603.955 865.894c0.353 2.514 2.49 4.427 5.073 4.427 2.828 0 5.12-2.292 5.12-5.12 0-0.576-0.095-1.13-0.271-1.647l0.011 0.036c-0.551-2.278-2.573-3.944-4.983-3.944-0.048 0-0.096 0.001-0.144 0.002h0.007c-0.169-0.024-0.365-0.037-0.563-0.037s-0.394 0.014-0.585 0.040l0.022-0.003c-2.134 0.65-3.66 2.6-3.66 4.907 0 0.476 0.065 0.937 0.187 1.375l-0.009-0.036zM630.886 930.458l-40.346-20.48-23.654 4.301 40.346 20.48zM573.952 29.85c0.223 0.034 0.48 0.054 0.742 0.054 2.857 0 5.174-2.316 5.174-5.174 0-2.595-1.911-4.744-4.403-5.117l-0.028-0.003h-0.717c-0.115-0.009-0.249-0.014-0.384-0.014-2.836 0-5.134 2.299-5.134 5.134 0 2.7 2.085 4.914 4.733 5.119l0.018 0.001zM568.832 872.090c0.364 2.502 2.495 4.403 5.070 4.403 2.828 0 5.12-2.292 5.12-5.12 0-2.81-2.264-5.091-5.067-5.12h-0.669c-2.623 0.243-4.661 2.433-4.661 5.099 0 0.26 0.019 0.516 0.057 0.766l-0.003-0.028zM581.069 939.981l-38.349-24.269-24.013 1.843 38.093 24.32zM538.931 26.214c0.1 0.007 0.216 0.011 0.333 0.011 2.834 0 5.131-2.297 5.131-5.131 0-2.717-2.111-4.94-4.782-5.119l-0.016-0.001h-0.307c-0.053-0.002-0.116-0.003-0.179-0.003-2.829 0-5.123 2.294-5.123 5.123 0 2.766 2.193 5.021 4.935 5.12h0.009zM533.043 875.315c0.167 2.692 2.391 4.813 5.111 4.813 2.828 0 5.12-2.292 5.12-5.12 0-2.824-2.287-5.115-5.11-5.12h-0.564c-2.58 0.288-4.568 2.457-4.568 5.090 0 0.119 0.004 0.236 0.012 0.353l-0.001-0.016zM529.254 944.64l-35.328-28.109-24.064-0.614 35.379 28.109zM503.398 25.446c2.828 0 5.12-2.292 5.12-5.12v0c0-2.828-2.292-5.12-5.12-5.12v0 0c-2.828 0-5.12 2.292-5.12 5.12s2.292 5.12 5.12 5.12v0zM497.203 875.366c0 2.828 2.292 5.12 5.12 5.12v0c2.828 0 5.12-2.292 5.12-5.12s-2.292-5.12-5.12-5.12v0 0c-0.001 0-0.003 0-0.004 0-2.828 0-5.12 2.292-5.12 5.12 0 0.072 0.001 0.144 0.004 0.215v-0.010zM468.122 27.648v0c2.56-0.308 4.525-2.467 4.525-5.085 0-0.156-0.007-0.311-0.021-0.464l0.001 0.020c-0.269-2.599-2.447-4.608-5.094-4.608-0.009 0-0.018 0-0.027 0h-0.511c-2.586 0.282-4.58 2.454-4.58 5.091 0 0.172 0.009 0.343 0.025 0.511l-0.002-0.021c0.277 2.591 2.451 4.591 5.093 4.591 0.208 0 0.413-0.012 0.615-0.037l-0.024 0.002zM461.466 872.96c-0.018 0.16-0.028 0.346-0.028 0.535 0 2.828 2.292 5.12 5.12 5.12s5.12-2.292 5.12-5.12c0-2.637-1.994-4.809-4.557-5.089l-0.023-0.002h-0.563c-2.621 0.011-4.776 1.989-5.067 4.533l-0.002 0.024zM477.901 943.565l-32.461-31.59-23.859-3.072 32.307 31.59zM433.050 32.717c2.634-0.244 4.68-2.443 4.68-5.12 0-2.839-2.302-5.141-5.141-5.141-0.162 0-0.323 0.008-0.481 0.022l0.020-0.002h-0.973c-2.44 0.463-4.26 2.579-4.26 5.12 0 2.876 2.331 5.207 5.207 5.207 0.335 0 0.662-0.032 0.98-0.092l-0.033 0.005zM426.138 867.277c-0.055 0.285-0.087 0.612-0.087 0.947 0 2.876 2.331 5.207 5.207 5.207 2.541 0 4.657-1.82 5.115-4.227l0.005-0.033c0.057-0.288 0.090-0.618 0.090-0.956 0-2.497-1.788-4.577-4.154-5.029l-0.032-0.005h-1.178c-2.417 0.014-4.436 1.7-4.96 3.959l-0.007 0.035zM427.827 937.677l-28.928-34.662-23.398-5.478 28.979 34.56zM392.294 37.171c0.608 2.198 2.59 3.786 4.943 3.786 2.828 0 5.12-2.292 5.12-5.12 0-2.765-2.193-5.019-4.934-5.117h-0.009c-0.207-0.024-0.448-0.038-0.691-0.038s-0.484 0.014-0.72 0.040l0.029-0.003c-2.282 0.548-3.952 2.572-3.952 4.985 0 0.523 0.078 1.027 0.224 1.502l-0.010-0.036zM391.322 858.573c-0.113 0.402-0.178 0.863-0.178 1.339 0 2.828 2.292 5.12 5.12 5.12s5.12-2.292 5.12-5.12c0-2.327-1.552-4.291-3.677-4.914l-0.036-0.009c-0.207-0.024-0.448-0.038-0.691-0.038s-0.484 0.014-0.72 0.040l0.029-0.003c-0.024 0-0.053-0.001-0.082-0.001-2.279 0-4.211 1.49-4.874 3.548l-0.010 0.036zM379.29 926.72l-25.293-37.427-22.733-7.782 25.293 37.53zM358.4 48.64c0.751 1.954 2.612 3.315 4.791 3.315 0.613 0 1.202-0.108 1.747-0.306l-0.036 0.011c1.984-0.735 3.373-2.612 3.373-4.813 0-2.826-2.289-5.117-5.114-5.12v0c-0.625 0.001-1.223 0.113-1.776 0.319l0.035-0.012c-1.971 0.742-3.348 2.612-3.348 4.804 0 0.647 0.12 1.266 0.339 1.836l-0.012-0.035zM357.478 847.053c-0.368 0.689-0.584 1.507-0.584 2.375 0 2.828 2.292 5.12 5.12 5.12 2.417 0 4.443-1.675 4.98-3.927l0.007-0.035c0.201-0.527 0.317-1.137 0.317-1.773 0-2.168-1.348-4.022-3.252-4.768l-0.035-0.012c-0.52-0.195-1.12-0.307-1.747-0.307-0.016 0-0.031 0-0.047 0h0.002c-2.17 0.015-4.018 1.378-4.75 3.293l-0.012 0.035zM325.53 62.925c0.842 1.743 2.595 2.923 4.625 2.923 0.774 0 1.507-0.172 2.165-0.479l-0.031 0.013c1.723-0.848 2.888-2.592 2.888-4.608 0-2.817-2.275-5.103-5.088-5.12h-0.002c-0.004 0-0.009 0-0.015 0-0.779 0-1.515 0.189-2.162 0.524l0.026-0.012c-1.72 0.85-2.881 2.592-2.881 4.605 0 0.782 0.175 1.522 0.488 2.185l-0.013-0.031zM324.659 832.717c-0.48 0.765-0.765 1.695-0.765 2.691 0 2.828 2.292 5.12 5.12 5.12 2.252 0 4.165-1.454 4.85-3.475l0.011-0.036c0.294-0.626 0.466-1.36 0.466-2.134 0-2.029-1.181-3.783-2.893-4.612l-0.031-0.013c-0.633-0.286-1.371-0.455-2.148-0.461h-0.002c-2.022 0.006-3.767 1.183-4.595 2.888l-0.013 0.030zM310.733 901.171l21.811 10.24-21.402-39.731-21.862-10.24zM297.574 813.107c-0.009 0-0.020 0-0.031 0-2.828 0-5.12 2.292-5.12 5.12s2.292 5.12 5.12 5.12c1.885 0 3.532-1.019 4.421-2.536l0.013-0.024c0.434-0.736 0.69-1.621 0.69-2.567 0-1.895-1.029-3.549-2.559-4.435l-0.025-0.013c-0.667-0.42-1.478-0.669-2.347-0.669-0.057 0-0.113 0.001-0.17 0.003h0.008zM293.939 79.872c0.923 1.436 2.513 2.373 4.321 2.373 2.828 0 5.12-2.292 5.12-5.12 0-0.868-0.216-1.685-0.597-2.401l0.013 0.028c-0.901-1.542-2.549-2.562-4.435-2.562-0.93 0-1.801 0.248-2.553 0.681l0.025-0.013c-1.555 0.899-2.584 2.553-2.584 4.448 0 0.945 0.256 1.831 0.703 2.591l-0.013-0.024zM267.213 879.155l20.736 12.186-17.408-41.677-20.736-12.186zM263.936 99.43c0.937 1.332 2.468 2.192 4.2 2.192 1.091 0 2.102-0.341 2.933-0.923l-0.016 0.011c1.332-0.937 2.192-2.468 2.192-4.2 0-1.091-0.341-2.102-0.923-2.933l0.011 0.016c-0.94-1.308-2.457-2.15-4.171-2.15-0.010 0-0.019 0-0.029 0h0.001c-1.085 0.006-2.094 0.33-2.939 0.883l0.021-0.013c-1.332 0.937-2.192 2.468-2.192 4.2 0 1.091 0.341 2.102 0.923 2.933l-0.011-0.016zM264.448 803.123c0.876 0.722 2.009 1.159 3.244 1.159 2.828 0 5.12-2.292 5.12-5.12 0-1.851-0.982-3.472-2.454-4.372l-0.022-0.013c-0.817-0.577-1.834-0.922-2.931-0.922-0.014 0-0.027 0-0.041 0h0.002c-1.75 0.028-3.283 0.929-4.187 2.285l-0.012 0.019c-0.528 0.792-0.842 1.766-0.842 2.813 0 1.702 0.83 3.209 2.107 4.14l0.015 0.010zM226.253 853.094l19.507 14.131-13.261-43.162-19.456-14.131zM235.52 121.446c0.946 1.135 2.36 1.852 3.942 1.852 1.251 0 2.396-0.448 3.286-1.193l-0.008 0.007c1.129-0.946 1.842-2.356 1.842-3.933 0-2.828-2.292-5.12-5.12-5.12s-5.12 2.292-5.12 5.12c0 1.246 0.445 2.388 1.185 3.276l-0.007-0.008zM235.52 781.21c0.881 0.737 2.027 1.184 3.277 1.184 2.831 0 5.126-2.295 5.126-5.126 0-1.581-0.716-2.995-1.841-3.936l-0.008-0.007c-0.879-0.733-2.021-1.178-3.267-1.178-0.004 0-0.007 0-0.011 0h0.001c-0.002 0-0.005 0-0.008 0-1.577 0-2.988 0.713-3.928 1.835l-0.007 0.008c-0.738 0.881-1.187 2.027-1.187 3.278 0 1.582 0.717 2.996 1.844 3.935l0.008 0.007zM208.64 756.89c0.928 0.933 2.212 1.51 3.631 1.51 2.828 0 5.12-2.292 5.12-5.12s-2.292-5.12-5.12-5.12c-1.419 0-2.704 0.577-3.631 1.51v0c-0.89 0.92-1.438 2.175-1.438 3.558 0 1.434 0.59 2.731 1.54 3.66l0.001 0.001zM216.525 138.598c-0.928-0.915-2.203-1.48-3.61-1.48-2.839 0-5.141 2.302-5.141 5.141 0 1.432 0.586 2.728 1.531 3.66l0.001 0.001c0.898 0.797 2.087 1.283 3.39 1.283 2.828 0 5.12-2.292 5.12-5.12 0-1.252-0.449-2.398-1.195-3.288l0.006 0.008zM188.211 823.296l17.971 15.974-8.96-44.288-18.022-15.923zM185.037 172.083c0.897 0.793 2.083 1.276 3.383 1.276 1.552 0 2.943-0.691 3.882-1.782l0.006-0.007c0.762-0.889 1.226-2.052 1.226-3.324 0-1.529-0.67-2.901-1.732-3.839l-0.006-0.005c-0.883-0.782-2.048-1.265-3.325-1.28h-0.003c0 0 0 0 0 0-1.554 0-2.946 0.692-3.885 1.785l-0.006 0.007c-0.775 0.892-1.248 2.066-1.248 3.35 0 1.515 0.658 2.876 1.704 3.814l0.005 0.004zM183.91 730.163v0c0.945 1.098 2.336 1.788 3.888 1.788 1.299 0 2.485-0.484 3.388-1.281l-0.006 0.005c1.1-0.945 1.793-2.337 1.793-3.891 0-2.828-2.292-5.12-5.12-5.12-0.018 0-0.036 0-0.055 0h0.003c-1.28 0.015-2.445 0.498-3.333 1.285l0.005-0.005c-1.177 0.946-1.924 2.386-1.924 4 0 1.343 0.517 2.566 1.363 3.479l-0.003-0.003zM168.96 192c-0.823-0.602-1.853-0.965-2.968-0.973h-0.002c-0.004 0-0.009 0-0.013 0-1.692 0-3.192 0.82-4.124 2.085l-0.010 0.014c-0.62 0.837-0.993 1.89-0.993 3.030 0 2.828 2.292 5.12 5.12 5.12s5.12-2.292 5.12-5.12c0-1.705-0.834-3.216-2.116-4.146l-0.015-0.010zM169.523 695.859c-0.925-1.289-2.41-2.125-4.092-2.15h-0.004c-1.14 0.012-2.189 0.395-3.034 1.033l0.013-0.009c-1.297 0.941-2.13 2.451-2.13 4.156 0 2.828 2.292 5.12 5.12 5.12s5.12-2.292 5.12-5.12c0-1.14-0.373-2.193-1.003-3.044l0.010 0.014zM153.242 789.965l16.333 17.613-4.659-44.902-16.435-17.715zM141.414 671.795c0.908 1.512 2.54 2.509 4.404 2.509 2.828 0 5.12-2.292 5.12-5.12s-2.292-5.12-5.12-5.12c-0.018 0-0.037 0-0.055 0h0.003c-0.987 0.007-1.906 0.292-2.684 0.78l0.021-0.012c-1.457 0.919-2.41 2.52-2.41 4.344 0 0.967 0.268 1.871 0.733 2.642l-0.013-0.023zM148.89 221.747c-0.757-0.476-1.676-0.761-2.661-0.768h-0.002c-1.806 0.015-3.388 0.963-4.288 2.385l-0.012 0.021c-0.745 0.883-1.198 2.035-1.198 3.292 0 2.828 2.292 5.12 5.12 5.12 2.17 0 4.025-1.35 4.771-3.257l0.012-0.035c0.391-0.706 0.621-1.549 0.621-2.445 0-1.804-0.933-3.39-2.342-4.302l-0.020-0.012zM121.6 753.408l14.592 19.098-0.307-45.158-14.592-19.098zM126.72 261.888c0.659 0.331 1.435 0.524 2.257 0.524 1.972 0 3.684-1.115 4.539-2.749l0.013-0.028c0.337-0.664 0.534-1.448 0.534-2.277 0-1.996-1.142-3.726-2.809-4.57l-0.029-0.013c-0.643-0.319-1.4-0.507-2.2-0.512h-0.002c-0.011 0-0.023 0-0.036 0-1.987 0-3.71 1.132-4.559 2.787l-0.013 0.029c-0.343 0.669-0.545 1.46-0.545 2.298 0 1.98 1.124 3.698 2.769 4.549l0.029 0.013zM123.955 640c0.849 1.721 2.592 2.884 4.606 2.884 2.828 0 5.12-2.292 5.12-5.12s-2.292-5.12-5.12-5.12c-0.839 0-1.632 0.202-2.331 0.56l0.029-0.013c-1.685 0.862-2.818 2.585-2.818 4.573 0 0.814 0.19 1.583 0.528 2.266l-0.013-0.030zM115.866 609.741c1.886-0.783 3.187-2.61 3.187-4.741 0-0.69-0.136-1.348-0.384-1.949l0.012 0.034c-0.783-1.871-2.595-3.164-4.709-3.174h-0.001c-0.012 0-0.026 0-0.041 0-0.65 0-1.27 0.132-1.834 0.37l0.031-0.012c-1.897 0.778-3.209 2.611-3.209 4.75 0 0.61 0.107 1.194 0.302 1.737l-0.011-0.036c0.737 1.98 2.612 3.365 4.81 3.365 0.664 0 1.299-0.126 1.881-0.356l-0.035 0.012zM116.224 285.389c-0.539-0.227-1.166-0.359-1.824-0.359-0.025 0-0.050 0-0.074 0.001h0.004c-2.759 0.088-4.962 2.345-4.962 5.118 0 2.105 1.27 3.913 3.086 4.7l0.033 0.013c0.409 0.118 0.88 0.186 1.366 0.186 2.828 0 5.12-2.292 5.12-5.12 0-1.961-1.102-3.664-2.721-4.524l-0.028-0.013zM106.291 734.259l4.096-44.954-12.646-20.48-4.096 44.954zM84.787 470.528c2.828 0 5.12-2.292 5.12-5.12s-2.292-5.12-5.12-5.12v0 0c-2.74 0.113-4.919 2.362-4.919 5.12 0 2.83 2.294 5.124 5.124 5.124 0.072 0 0.144-0.001 0.215-0.004h-0.010zM82.432 501.709c0.317 2.571 2.489 4.542 5.12 4.542 2.848 0 5.157-2.309 5.157-5.157 0-0.217-0.013-0.43-0.039-0.639l0.003 0.025c-0.341-2.527-2.483-4.455-5.077-4.455-0.015 0-0.031 0-0.046 0h-0.51c-2.614 0.253-4.642 2.438-4.642 5.098 0 0.206 0.012 0.41 0.036 0.61l-0.002-0.024zM84.429 434.688c0.061 0.003 0.133 0.004 0.205 0.004 2.83 0 5.124-2.294 5.124-5.124 0-2.758-2.179-5.007-4.909-5.12h-0.010c-2.828 0-5.12 2.292-5.12 5.12s2.292 5.12 5.12 5.12v0zM82.534 393.267c-0.025 0.192-0.040 0.414-0.040 0.64 0 2.85 2.31 5.16 5.16 5.16 2.624 0 4.791-1.959 5.117-4.494l0.003-0.026c0.023-0.183 0.036-0.394 0.036-0.609 0-2.588-1.92-4.727-4.413-5.072l-0.027-0.003h-0.614c-0.015 0-0.033 0-0.050 0-2.575 0-4.706 1.901-5.066 4.376l-0.003 0.028zM92.518 363.622c0.323 0.072 0.694 0.114 1.074 0.114 2.469 0 4.53-1.748 5.013-4.074l0.006-0.033c0.061-0.296 0.096-0.637 0.096-0.986 0-2.444-1.713-4.489-4.004-4.998l-0.034-0.006c-0.162-0.036-0.347-0.056-0.538-0.056s-0.376 0.020-0.555 0.059l0.017-0.003c-0.034-0.001-0.074-0.001-0.114-0.001-2.447 0-4.494 1.717-5 4.012l-0.006 0.034c-0.053 0.276-0.083 0.592-0.083 0.916 0 2.477 1.758 4.542 4.095 5.017l0.033 0.006zM97.28 572.621c0.747 1.962 2.612 3.33 4.797 3.33 2.828 0 5.12-2.292 5.12-5.12 0-0.419-0.050-0.825-0.145-1.215l0.007 0.035c-0.553-2.276-2.573-3.94-4.982-3.94-2.828 0-5.12 2.292-5.12 5.12 0 0.643 0.118 1.258 0.335 1.825l-0.012-0.035zM101.018 328.755c0.459 0.15 0.988 0.236 1.537 0.236 2.384 0 4.388-1.63 4.958-3.836l0.008-0.036c0.133-0.433 0.209-0.932 0.209-1.448 0-2.3-1.516-4.245-3.603-4.892l-0.036-0.010c-0.215-0.035-0.464-0.055-0.717-0.055s-0.501 0.020-0.744 0.058l0.027-0.003c-0.061-0.003-0.132-0.004-0.204-0.004-2.318 0-4.277 1.541-4.907 3.654l-0.009 0.036c-0.119 0.411-0.187 0.884-0.187 1.373 0 2.329 1.555 4.295 3.684 4.916l0.036 0.009zM94.362 541.389c2.613-0.269 4.634-2.459 4.634-5.12 0-2.842-2.304-5.146-5.146-5.146-0.18 0-0.358 0.009-0.534 0.027l0.022-0.002c-0.162-0.024-0.348-0.038-0.538-0.038s-0.376 0.014-0.558 0.040l0.021-0.002c-2.301 0.534-3.989 2.567-3.989 4.994 0 0.353 0.036 0.697 0.104 1.030l-0.006-0.033c0.39 2.474 2.507 4.344 5.061 4.344 0.347 0 0.686-0.035 1.013-0.1l-0.033 0.005zM80.128 693.094l8.499-44.339-10.547-21.555-8.499 44.339zM58.010 649.267l12.902-43.315-8.397-22.528-12.902 43.264zM40.243 603.187l17.101-41.728-6.144-23.552-17.050 41.779zM27.034 554.445l21.299-39.885-3.686-23.757-21.299 39.885zM18.739 504.013l25.242-37.427-1.229-24.013-25.242 37.427zM15.616 452.25l28.979-34.662 1.485-24.013-29.184 34.662zM17.818 401.050l32.358-31.437 3.686-23.808-32.358 31.59zM24.986 351.334l35.43-28.006 6.144-23.194-35.482 28.058zM37.069 303.206l37.99-24.166 8.397-22.528-38.042 24.32zM53.658 257.126l40.294-20.48 10.598-21.555-40.294 20.48zM74.65 213.094l42.086-16.333 12.646-20.48-42.086 16.384zM99.738 171.52l43.622-12.237 14.592-19.098-43.469 12.186zM145.050 115.2l-16.384 17.613 44.442-7.936 16.384-17.613zM161.178 96.973l45.005-3.584 18.022-15.923-45.005 3.43zM197.018 64.461l45.158 0.768 19.456-14.131-45.158-0.768zM236.032 35.43l44.851 5.12 20.787-12.39-44.851-5.12zM277.914 10.291l44.083 9.574 21.862-10.24-44.134-9.626zM322.56-10.957l42.906 13.926 22.733-7.782-42.906-13.978zM369.408-27.648l41.318 18.227 23.398-5.478-41.421-18.381zM418.406-39.629l39.27 22.323 23.808-3.072-39.219-22.323zM493.312-47.258l-24.013 0.614 36.762 26.214 24.013-0.614zM521.062-48.435l33.894 29.901 23.962 1.843-33.843-29.85zM571.853-44.954l30.72 33.126 23.654 4.301-30.72-33.126zM621.21-36.557l27.085 36.147 23.142 6.656-27.136-36.096zM691.2-14.387l-22.323-8.96 23.347 38.656 22.323 8.96zM735.898 5.53l-21.35-11.11 19.456 40.96 21.299 11.11zM778.138 29.594l-20.378-13.158 15.36 42.445 20.122 13.158zM794.624 126.874c-1.111 0.945-1.812 2.345-1.812 3.908 0 2.828 2.292 5.12 5.12 5.12 1.743 0 3.283-0.871 4.207-2.201l0.011-0.017c0.791-0.897 1.274-2.082 1.274-3.38 0-2.808-2.26-5.087-5.060-5.12h-0.003c-0.039-0.001-0.086-0.002-0.132-0.002-1.458 0-2.773 0.609-3.706 1.587l-0.002 0.002zM817.664 57.651l-18.944-15.155 11.11 43.776 18.79 15.053zM826.88 737.792c-0.925-0.92-2.201-1.489-3.61-1.489s-2.684 0.569-3.61 1.489v0c-0.904 0.923-1.462 2.188-1.462 3.584 0 2.829 2.294 5.123 5.123 5.123 1.434 0 2.73-0.589 3.66-1.538l0.001-0.001c0.876-0.917 1.415-2.162 1.415-3.534 0-1.473-0.622-2.8-1.617-3.734l-0.003-0.003zM827.699 151.859c-0.944-1.249-2.426-2.047-4.095-2.047-2.828 0-5.12 2.292-5.12 5.12 0 1.554 0.692 2.946 1.785 3.885l0.007 0.006c0.889 0.764 2.055 1.23 3.329 1.23 2.828 0 5.12-2.292 5.12-5.12 0-1.159-0.385-2.228-1.034-3.086l0.009 0.013zM817.971 804.403l44.749-5.734 17.203-16.794-44.749 5.734zM854.118 89.139l-17.203-16.794 6.861 44.646 17.203 16.794zM865.28 689.715c0.794 0.532 1.772 0.849 2.823 0.849 2.828 0 5.12-2.292 5.12-5.12s-2.292-5.12-5.12-5.12c-1.767 0-3.325 0.895-4.245 2.257l-0.012 0.018c-0.541 0.799-0.863 1.785-0.863 2.845 0 1.776 0.905 3.342 2.278 4.26l0.019 0.012zM868.608 206.234c-0.016 0-0.036 0-0.055 0-1.034 0-1.992 0.326-2.776 0.881l0.015-0.010c-1.366 0.934-2.25 2.484-2.25 4.24 0 1.031 0.305 1.99 0.829 2.794l-0.012-0.020c0.935 1.356 2.479 2.233 4.228 2.233 2.828 0 5.12-2.292 5.12-5.12 0-1.019-0.297-1.968-0.81-2.765l0.012 0.020c-0.933-1.372-2.487-2.262-4.248-2.262-0.109 0-0.216 0.003-0.323 0.010l0.015-0.001zM887.706 124.314l-15.36-18.381 2.509 45.056 15.36 18.381zM891.648 239.616c-0.893-1.567-2.552-2.608-4.454-2.611v0c-0.9 0.011-1.744 0.237-2.488 0.629l0.030-0.014c-1.586 0.891-2.64 2.562-2.64 4.479 0 0.912 0.238 1.768 0.656 2.51l-0.013-0.026c0.894 1.574 2.558 2.618 4.467 2.618 0.896 0 1.739-0.23 2.471-0.635l-0.026 0.013c1.516-0.907 2.516-2.541 2.516-4.408 0-1.003-0.289-1.94-0.788-2.73l0.012 0.021zM884.326 659.456c0.697 0.378 1.525 0.6 2.406 0.6 1.9 0 3.559-1.035 4.442-2.572l0.013-0.025c0.391-0.706 0.621-1.549 0.621-2.445 0-1.909-1.044-3.573-2.593-4.454l-0.025-0.013c-0.696-0.383-1.524-0.61-2.405-0.614h-0.001c-2.762 0.084-4.969 2.343-4.969 5.118 0 1.865 0.997 3.497 2.488 4.393l0.023 0.013zM881.51 738.509l42.854-14.285 13.363-20.224-42.803 14.285zM900.403 627.2c0.751 0.456 1.658 0.726 2.628 0.726 2.828 0 5.12-2.292 5.12-5.12 0-2.267-1.473-4.189-3.514-4.863l-0.036-0.010c-0.469-0.156-1.009-0.247-1.57-0.247-2.828 0-5.12 2.292-5.12 5.12 0 1.857 0.989 3.484 2.469 4.381l0.023 0.013zM898.253 275.814c0.674 2.094 2.605 3.583 4.884 3.583 2.828 0 5.12-2.292 5.12-5.12 0-0.942-0.255-1.825-0.699-2.583l0.013 0.024c-0.822-1.796-2.603-3.021-4.67-3.021-0.014 0-0.028 0-0.043 0h0.002c-0.012 0-0.027 0-0.041 0-0.725 0-1.415 0.151-2.040 0.423l0.033-0.013c-1.832 0.807-3.088 2.606-3.088 4.699 0 0.824 0.195 1.603 0.541 2.293l-0.013-0.029zM903.629 142.182l-1.894 45.107 13.619 19.814 1.946-45.107zM920.934 305.408c-0.717-2.019-2.611-3.438-4.836-3.438-0.1 0-0.199 0.003-0.298 0.009l0.014-0.001c-0.587 0.007-1.15 0.1-1.679 0.267l0.041-0.011c-2.010 0.722-3.422 2.611-3.422 4.83 0 0.618 0.109 1.21 0.31 1.759l-0.011-0.036c0.731 1.993 2.612 3.39 4.819 3.39 0.584 0 1.145-0.098 1.668-0.278l-0.036 0.011c2.109-0.665 3.613-2.603 3.613-4.893 0-0.482-0.066-0.948-0.191-1.389l0.009 0.036zM924.928 560.026c0.372 0.097 0.798 0.152 1.238 0.152 2.372 0 4.368-1.613 4.949-3.803l0.008-0.036c0.104-0.386 0.164-0.829 0.164-1.286 0-2.377-1.619-4.375-3.815-4.952l-0.036-0.008c-0.192-0.024-0.414-0.038-0.64-0.038s-0.448 0.014-0.666 0.040l0.026-0.003c-0.184-0.023-0.398-0.037-0.614-0.037-2.848 0-5.157 2.309-5.157 5.157 0 2.631 1.971 4.803 4.517 5.117l0.025 0.003zM921.6 342.886c0.727 1.999 2.611 3.401 4.823 3.401 2.828 0 5.12-2.292 5.12-5.12 0-0.279-0.022-0.553-0.065-0.82l0.004 0.029c-0.588-2.227-2.584-3.843-4.958-3.843-0.057 0-0.114 0.001-0.17 0.003h0.008c-0.185-0.031-0.397-0.049-0.614-0.049s-0.43 0.018-0.637 0.053l0.022-0.003c-2.172 0.625-3.734 2.595-3.734 4.929 0 0.506 0.073 0.995 0.21 1.456l-0.009-0.036zM931.84 182.17l-6.298 44.698 11.674 21.043 6.298-44.698zM938.291 407.040h-0.41c-2.631 0.235-4.677 2.429-4.677 5.101 0 0.151 0.007 0.3 0.019 0.448l-0.001-0.019c0.21 2.654 2.415 4.728 5.105 4.728 0.149 0 0.297-0.006 0.444-0.019l-0.019 0.001c2.73-0.127 4.895-2.37 4.895-5.12 0-2.831-2.295-5.125-5.125-5.125-0.081 0-0.162 0.002-0.242 0.006h0.011zM944.845 448.922v-0.922c0-2.828-2.292-5.12-5.12-5.12s-5.12 2.292-5.12 5.12v0s0 0.307 0 0.41c-0.012 0.085-0.019 0.182-0.019 0.282s0.007 0.197 0.020 0.293l-0.001-0.011c0 2.828 2.292 5.12 5.12 5.12v0c2.828 0 5.12-2.292 5.12-5.12v0zM955.853 224.666l-10.65 44.134 9.472 22.067 10.701-43.827zM975.872 269.773l-15.002 42.598 7.219 22.938 15.053-42.598zM991.232 317.184l-19.2 40.96 5.12 23.552 19.251-40.96zM1002.035 366.694l-23.296 38.656 2.458 23.91 23.296-38.656zM1007.77 417.894l-27.187 35.84v24.422l27.187-35.84z" />
<glyph unicode="&#xe911;" glyph-name="abstract-hexagon-0" data-tags="abstract-hexagon-0" d="M80.794 308.224l3.686-124.006 98.662-53.094 72.858-126.054h161.536l109.363-58.829 95.386 58.829h145.715l80.794 139.776 105.677 65.178-3.328 111.923 72.858 126.054-80.794 139.776-3.686 124.006-98.662 53.043-72.858 126.106h-161.536l-109.363 58.829-95.334-58.829h-145.766l-80.794-139.725-105.677-65.229 3.328-111.872-72.858-126.106zM1015.245 448l-64.563-111.667-6.963 235.52zM104.294 196.454l-2.202 74.957 61.747-107.008zM260.352 12.8l-64.512 111.667 207.667-111.667zM526.234-30.31l-66.099 35.533h123.546zM763.648 12.8h-129.126l200.653 123.802zM933.939 221.235l-63.898-39.475 61.798 106.957zM919.706 699.699l2.253-74.957-61.798 106.854zM763.648 883.2l64.563-111.667-207.718 111.667zM497.766 926.464l66.099-35.533h-123.546zM260.352 883.2h129.126l-200.653-123.648zM427.93 883.2h150.016l269.466-144.896 75.008-129.792 9.062-305.613-75.008-129.792-260.352-160.307h-150.067l-269.466 144.896-75.008 129.638-9.062 305.613 75.008 129.792zM153.907 714.24l-61.747-106.906-1.997 67.584zM73.318 559.718l6.963-235.52-71.526 123.802z" />
<glyph unicode="&#xe912;" glyph-name="abstract-rectangle-0" data-tags="abstract-rectangle-0" d="M942.080-64h-860.16v1024h860.16zM104.192-43.059h815.616v982.118h-815.616zM143.514 896.102h736.973v-896.154h-736.973v896.154z" />
<glyph unicode="&#xe913;" glyph-name="abstract-shape-0" data-tags="abstract-shape-0" d="M732.826 886.733c171.532-67.988 290.628-232.454 290.628-424.738 0-251.665-204.015-455.68-455.68-455.68-208.324 0-383.998 139.797-438.327 330.696l-0.782 3.213c-1.792 6.451-3.379 12.954-4.864 19.456 58.84-176.398 222.474-301.311 415.283-301.311 241.259 0 436.838 195.579 436.838 436.838 0 170.683-97.889 318.503-240.59 390.381l-2.508 1.145zM221.44 455.117c-73.83 22.374-48.026-147.046-48.026-147.046s110.95 128 48.026 147.046zM9.062 385.741c-48.998-59.546 117.299-100.762 117.299-100.762s-75.52 151.603-117.299 100.762zM146.893 234.291s-126.157 63.488-127.488 0c-1.126-54.272 127.488 0 127.488 0zM202.086 265.011s135.322 40.448 92.672 87.603c-36.352 40.038-92.672-87.757-92.672-87.757zM111.462 494.387c-61.44-5.99 9.37-123.75 9.37-123.75s43.008 128.768-9.37 123.597z" />
<glyph unicode="&#xe914;" glyph-name="abstract-shape-1" data-tags="abstract-shape-1" d="M301.8 435.8l176.38-122.94v-359c0-10.586-8.288-17.74-17.014-17.74-3.794 0-7.672 1.353-10.986 4.364l-444.366 404.316c-3.98 3.6-5.813 8.4-5.813 15 0 7.904 5.016 15.62 13.624 17.412l288.175 58.588zM18.652 449c-9.678 0-16.77 8.618-16.77 17.828 0 3.882 1.26 7.87 4.118 11.36l383.6 467.8c3.598 4.4 8.144 6.292 12.594 6.292 8.804 0 17.236-7.404 17.236-17.432 0-1.892-0.3-3.876-0.954-5.922l-135.476-424.926-260.82-54.6c-1.2-0.2-2.384-0.4-3.528-0.4zM674.8 487.8l-162.88-113.44-162.72 113.44 146.82 460.2c2.58 7.968 9.18 12 15.98 12s13.48-4.032 16.042-12.094l146.758-460.106zM1024 359.8c0-4.778-1.833-9.626-5.812-13.276l-444.4-404.4c-3.188-4.724-7.188-6.124-10.988-6.124-8.724 0-17.008 7.184-17.008 17.768v359l176.38 122.94 288.2-60.26c8.628-1.848 13.628-9.448 13.628-15.648zM605.4 928.96c-0.641 2.028-0.936 3.994-0.936 5.87 0 10.054 8.456 17.484 17.278 17.484 4.452 0 8.996-1.892 12.594-6.292l383.6-467.8c2.858-3.49 4.118-7.478 4.118-11.362 0-9.23-7.12-17.876-16.828-17.876-1.127 0-2.288 0.116-3.478 0.362l-260.8 54.5-135.548 425.114z" />
<glyph unicode="&#xe915;" glyph-name="abstract-shape-2" data-tags="abstract-shape-2" d="M1024 394.8c0 15.18-5.366 30.38-16.236 42.64l-448.2 501.2c-12.564 14.36-29.964 21.36-47.564 21.36s-35-7-47.6-21.24l-448.098-501.36c-10.96-12.2-16.302-25.6-16.302-42.4 0-17.8 7.324-35.4 21.6-48l448.2-395c12-10.8 27.2-16 42.2-16s30.24 5.23 42.24 15.98l448.2 395c14.36 12.62 21.56 30.22 21.56 47.82zM512 384.2l-132.2 88.2 132.24 308.2 132.24-308.2-132.28-88.2zM285.4 495.6l-113.82-28.6 194.98 218.2-81.16-189.6zM311 403l153-102v-216l-314.8 277.4 161.8 40.6zM560 301l153 102 161.74-40.5-314.8-277.4v215.9zM738.8 495.6l-81.24 189.74 194.98-218.2-113.74 28.46z" />
<glyph unicode="&#xe916;" glyph-name="abstract-shape-3" data-tags="abstract-shape-3" d="M1024 394.8c0 15.18-5.366 30.38-16.236 42.64l-448.2 501.2c-12.564 14.36-29.964 21.36-47.564 21.36s-35-7-47.6-21.24l-448.098-501.36c-10.96-12.2-16.302-25.6-16.302-42.4 0-17.8 7.324-35.4 21.6-48l448.2-395c12-10.8 27.2-16 42.2-16s30.24 5.23 42.24 15.98l448.2 395c14.36 12.62 21.56 30.22 21.56 47.82zM512 364l-151.6 101.2 151.74 354 151.74-354-151.88-101.2zM297.6 480.4l-202.020-50.4 346.42 387.76-144.4-337.36zM726.6 480.4l-144.6 337.36 347-387.76-202.4 50.4zM98.080 364.8l216.52 54.2 165.5-110.5v-280.6l-382.020 336.9zM544 28.2v280.2l165.5 110.5 216.2-54.24-381.7-336.46z" />
<glyph unicode="&#xe917;" glyph-name="abstract-shape-4" data-tags="abstract-shape-4" d="M1024 394.8c0 15.134-5.34 30.44-16.236 42.64l-448.2 501.2c-12.764 14.236-30.164 21.36-47.564 21.36s-34.8-7.124-47.6-21.24l-448.098-501.36c-10.894-12.2-16.302-25.6-16.302-42.4 0-17.8 7.28-35.4 21.6-48l448.2-395c7.726-6.804 16.792-10.67 26.22-13.116v-2.884h32v2.864c9.422 2.446 18.556 6.312 26.28 13.116l448.2 395c14.3 12.62 21.5 30.22 21.5 47.82zM40.1 416.2l441.6 494-173.5-448.4-224.58-47.2-50.040-8.8c1.32 2.6 3.38 6.8 6.52 10.4zM40.98 372.8l1.203 0.252-0.803-0.652c-0.16 0-0.24 0.4-0.4 0.4zM494.2-27.2c-1.703 1.012-3.578 1.73-5.086 3.058 0 0-449 394.2-449.6 396.4l0.805 0.811 275 57.94 178.76-104.26v-353.949zM512 354.6l-172.2 100.4 172.2 444.66 172.14-444.8-172.14-100.26zM981.2 371l-448.2-395c-1.508-1.332-3.382-2.050-5.102-3.062v353.862l178.76 104.24 274.2-58.12c1.342-0.52 0.942-1.32 0.342-1.92zM715.8 461.8l-173.54 448.2 441.54-493.8c3.14-3.52 5.204-7.648 6.532-12.028l-274.532 57.628z" />
<glyph unicode="&#xe918;" glyph-name="abstract-shape-5" data-tags="abstract-shape-5" d="M226.2 303l110.020-344-171.74 85.9c-21.060 10.562-46.76 36.18-57.24 57.24l-93.74 190.86c-8.874 17.8-13.5 37.4-13.5 57.2v180.6l226.2-227.8zM262.4 359l-247.338 247.2 102.88 205.6 362.058-130.4v-213.8l-217.6-108.6zM512 738l-332.56 119.74 177.54 88.74c17.82 8.894 37.42 13.52 57.22 13.52h195.56c16.688 0 42.34-6.062 57.22-13.5l177.56-88.74-332.54-119.76zM729.2 303.6l-117.6-367.6h-199.2l-117.62 367.6 217.22 108.6 217.2-108.6zM544 681.4l362 130.38 102.88-205.6-247.2-247.2-217.68 108.82v213.6zM1024 530.8v-180.6c0-16.688-6.062-42.32-13.5-57.24l-95.46-190.76c-10.5-21.060-36.18-46.76-57.24-57.24l-171.74-85.9 110.020 344 227.92 227.74z" />
<glyph unicode="&#xe919;" glyph-name="abstract-shape-6" data-tags="abstract-shape-6" d="M1017.2 589.6l-111.74 223.4c-6.25 12.25-16.25 22.24-28.5 28.5l-223.4 111.74c-8.76 4.51-18.76 6.76-28.56 6.76h-226c-9.8 0-19.8-2.25-28.6-6.75l-223.4-111.75c-12.24-6.26-22.24-16.26-28.5-28.5l-111.75-223.4c-4.5-8.8-6.75-18.8-6.75-28.6v-226c0-9.75 2.25-19.5 6.75-28.5l111.74-223.4c6.25-12.25 16.25-22.24 28.5-28.5l223.4-111.74c8.81-4.66 18.81-6.86 28.61-6.86h226c9.75 0 19.5 2.25 28.5 6.75l223.4 111.74c12.25 6.25 22.24 16.25 28.5 28.5l111.74 223.4c4.66 9.21 6.86 18.81 6.86 28.61v226c0 9.8-2.2 19.4-6.8 28.6zM910 589.2l-156.26-208.4-193.74 97v187l281.6 56.24-2 9.25 70.4-141.090zM601 32h-178l-106 264.8 195 97.4 195-97.5-106-264.7zM406.8 864h210.6l128.6-64.24-234-46.76-234 46.76 128.8 64.24zM184.5 730.2l-2-9.25 281.5-56.15v-187l-193.8-97-156.2 208.4 70.5 141zM96 342.8v110.5l117.76-157 84-209.8-98.26 49.1-103.5 207.2zM824.4 135.6l-98.24-49 84 209.8 117.84 156.8v-110.5l-103.6-207.1z" />
<glyph unicode="&#xe91a;" glyph-name="abstract-shape-7" data-tags="abstract-shape-7" d="M1010.6 603l-95.46 190.78c-12.25 24.74-32.5 45-57.24 57.24l-190.78 95.46c-17.92 9.020-37.32 13.52-57.32 13.52h-195.6c-20 0-39.5-4.5-57.24-13.5l-190.74-95.46c-24.76-12.26-45-32.5-57.26-57.26l-95.46-190.78c-9-17.8-13.5-37.2-13.5-57.2v-195.54c0-20 4.5-39.5 13.5-57.24l95.46-190.8c12.25-24.74 32.5-45 57.24-57.24l190.8-95.46c17.8-8.72 37.2-13.52 57.2-13.52h195.5c20 0 39.5 4.5 57.24 13.5l190.8 95.46c24.74 12.25 45 32.5 57.24 57.24l95.46 190.76c8.76 17.84 13.56 37.24 13.56 57.24v195.6c0 20-4.4 39.4-13.4 57.2zM951.6 578.2l-191.26-218.4-216.34 108v211.8l314 85.74 93.6-187.14zM617.6 0h-211l-110.74 304 216.14 108.2 216.2-108.2-110.6-304zM399 896h226l165.5-82.76-278.5-76.040-278.4 76 165.4 82.8zM166 765.24l314-85.64v-211.8l-216.2-108-191.3 218.4 93.5 187.040zM64 335v155.8l163.92-187.66 96.84-265.8-149 74.5-111.76 223.16zM848.2 111.8l-149-74.5 96.84 265.8 163.96 187.7v-155.8l-111.8-223.2z" />
<glyph unicode="&#xe91b;" glyph-name="abstract-shape-8" data-tags="abstract-shape-8" d="M1010.6 603l-95.46 190.78c-10.5 21.060-36.18 46.76-57.24 57.24l-190.78 95.46c-14.92 7.458-40.72 13.52-57.32 13.52h-195.6c-20 0-39.4-4.626-57.2-13.5l-190.78-95.46c-21.060-10.5-46.76-36.2-57.26-57.26l-95.46-190.78c-7.438-14.8-13.5-40.6-13.5-57.2v-195.54c0-19.938 4.626-39.5 13.5-57.24l95.46-190.8c10.5-21.060 36.18-46.76 57.24-57.24l190.8-95.46c14.8-5.72 40.6-13.52 57.2-13.52h195.5c19.938 0 39.5 4.624 57.24 13.5l190.8 95.46c21.060 10.5 46.76 36.18 57.24 57.24l95.46 190.76c5.76 14.84 13.56 40.64 13.56 57.24v195.6c0 19.8-4.6 39.4-13.4 57.2zM981.8 588.6c4.976-9.946 7.546-20.88 8.844-31.94l-225.6-248.2-237.044 148.34v204l353.6 126.28c1.75-2.554 3.718-5.184 4.882-7.512l95.318-190.968zM180.5 822.44l190.82 95.44c13.28 6.62 28.080 10.12 42.88 10.12h195.56c11.632 0 32.46-4.918 42.88-10.122l190.86-95.46c4.414-2.2 9.352-5.812 14.336-9.91l-345.836-123.508-345.86 123.52c4.98 4.1 9.94 7.72 14.36 9.92zM137.58 779.54c1.156 2.312 3.11 4.93 4.86 7.472l353.56-126.212v-203.8l-237.2-148.26-225.76 248.26c1.72 12.8 5.3 24.2 9.080 31.6l95.46 190.94zM137.56 116.4l-95.42 190.82c-6.64 13.38-10.14 28.18-10.14 42.98v160.4l210-231 101.52-287.6-163.080 81.56c-14.68 7.44-35.54 28.24-42.88 42.84zM414.2-32c-7.938 0-20.020 2.348-30.28 5.446l-108.52 307.754 236.6 148 236.6-147.92-108.6-307.6c-9.8-3.48-19.8-5.68-30.2-5.68h-195.6zM981.8 307.4l-95.46-190.86c-7.328-14.71-28.18-35.56-42.92-42.9l-163.040-81.54 101.52 287.6 210.1 230.9v-160.4c0-11.6-5-32.4-10.2-42.8z" />
<glyph unicode="&#xe91c;" glyph-name="abstract-shape-9" data-tags="abstract-shape-9" d="M40.080 325.4c-4.080 0-8.080 3-8.080 8v325.6c0 4.702 3.82 8.024 8.002 8.024 1.376 0 2.792-0.36 4.124-1.15l153.24-90.2-150.56-244.6c-1.626-4.674-4.186-5.674-6.726-5.674zM462.8 149.6l-416.4 44.12c-8.54 0.964-14.246 8.234-14.246 15.99 0 2.802 0.745 5.668 2.37 8.322l210.876 311.768 217.4-380.2zM62.2 119.8c0 4.078 3.016 8.136 7.86 8.136 0.331 0 0.67-0.019 1.018-0.058l407.2-44.62v-131.32c-0.078-9.138-5.878-15.938-14.278-15.938-2.226 0-4.51 0.477-6.726 1.513l-388.774 175.287c-3.12 1.6-6.3 4.4-6.3 7zM67.88 725.8c-2.578 1.528-3.876 4.176-3.876 6.834 0 2.562 1.204 5.134 3.626 6.728l301.6 197.18c0.97 1.498 5.37 2.178 7.97 2.178 8.64 0 16.006-7.442 16.006-16.044 0-2.758-0.758-5.636-2.474-8.428l-159.732-285.848-163.12 97.4zM293.6 609.8l191.18 336.8c6.22 8.34 16.62 13.4 25.42 13.4s21-5.060 27.24-15.248l191.18-336.8h-435.020zM712.8 545.8l-200.8-351.4-200.8 351.4h401.6zM952.2 129.8c4.844 0 7.86-4.058 7.86-8.136 0-2.756-1.379-5.522-4.504-7.048l-388.8-175.32c-2.206-1.018-4.482-1.489-6.7-1.489-8.4 0-15.988 6.742-15.988 15.988v131.38l407.2 44.56c0.132-1.735 0.532 0.065 0.932 0.065zM989.6 218.2c1.6-2.8 2.4-5.6 2.4-8.4 0-7.744-5.682-14.998-14.256-15.96l-416.4-44.12 217.2 380.2 211.056-311.72zM633.2 914.26c-1.716 2.79-2.474 5.668-2.474 8.428 0 8.602 7.366 16.044 16.006 16.044 2.616 0 5.35-0.682 8.030-2.22l301.6-197.18c2.422-1.595 3.626-4.152 3.626-6.706 0-2.65-1.298-5.298-3.876-6.858l-163.112-97.368-159.8 285.86zM982.2 667c4.182 0 8.002-3.322 8.002-8.024v-325.6c0-4.966-4.032-8.012-8.106-8.012-2.54 0-5.098 1.184-6.706 3.824l-150.56 244.6 153.24 90.2c3.13 2.612 4.53 3.012 4.13 3.012z" />
<glyph unicode="&#xe91d;" glyph-name="abstract-shape-10" data-tags="abstract-shape-10" d="M927.8 727.8l-384 223.8c-9.8 5.524-20.8 8.4-33.6 8.4s-20.2-2.876-30-8.5l-384-223.8c-19.96-9.9-32.2-33.1-32.2-56.7v-446c0-23.5 12.25-44.96 32.24-56.72l384-223.8c9.76-5.68 20.76-8.48 31.76-8.48s22 2.876 31.76 8.5l384 223.8c20.040 11.7 32.24 33.1 32.24 56.7v446c0 23.6-12.2 46.8-32.2 56.8zM512 784.3l145-192.28h-290l145 192.28zM512 281.4l-136.4 216.4h273l-136.6-216.4zM290.2 451l126.76-199.020-166.76 38.76 40 160.26zM733.8 451l40-160.26-166.76-38.76 126.76 199.020zM767 605.6l-140.76 186.78 212-123.52-71.24-63.26zM257 605.6l-71.24 63.2 212 123.52-140.76-186.72zM208.4 520.2l-48.4-194.2v237.2l48.4-43zM464 142.4v-77.26l-220.4 128.52 220.4-51.26zM560 142.4l220.4 51.26-220.4-128.46v77.2zM864 326l-48.5 194.28 48.5 42.92v-237.2z" />
<glyph unicode="&#xe91e;" glyph-name="abstract-shape-11" data-tags="abstract-shape-11" d="M927.8 727.8l-384 223.8c-9.8 5.524-20.8 8.4-33.6 8.4s-20.2-2.876-30-8.5l-384-223.8c-19.96-9.9-32.2-33.1-32.2-56.7v-446c0-23.5 12.25-44.96 32.24-56.72l384-223.8c9.76-5.68 20.76-8.48 31.76-8.48s22 2.876 31.76 8.5l384 223.8c20.040 11.7 32.24 33.1 32.24 56.7v446c0 23.6-12.2 46.8-32.2 56.8zM512 844.8l189.5-236.8h-379.1l189.6 236.8zM313.2 545.8h397.6l-198.8-324.8-198.8 324.8zM449.8 200l-274 34.26 89 266.6 185-300.86zM759.2 500.8l89-266.6-274-34.26 185 300.86zM773.8 620.2l-184.5 230.2 276-161.52-91.5-68.68zM250.2 620.2l-92.2 69.4 277 161.52-184.8-230.92zM218.2 564.2l-90.2-270.8 0.5 338.2 89.7-67.4zM480 131.8v-112.76l-245.2 143.36 245.2-30.6zM791.2 162.8l-247.2-144.6v113.52l247.2 31.080zM805.8 564.2l90.2 69.6-0.5-337.6-89.7 268zM512.4 0v0 0z" />
<glyph unicode="&#xe91f;" glyph-name="abstract-shape-12" data-tags="abstract-shape-12" d="M927.8 727.8l-384 223.8c-8.2 4.65-22.4 8.4-33.6 8.4s-21.8-3.75-30-8.5l-384-223.8c-19.88-11.5-32.2-33.3-32.2-56.7v-446c0-23.38 12.312-45.080 32.24-56.72l384-223.8c8.16-4.68 22.36-8.48 31.76-8.48s23.62 3.75 31.76 8.5l384 223.8c19.84 11.5 32.24 33.3 32.24 56.7v446c0 23.4-12.4 45.2-32.2 56.8zM512 190.4l-227.4 369.6h454.8l-227.4-369.6zM96.32 672.4l139.5-101.44-139.82-292.36v392.4c0 0.6 0.32 0.8 0.32 1.4zM557.8 906.18l353.8-206-139.72-101.64-214.080 307.64zM737.4 592h-450.8l225.4 324 225.4-324zM252.4 598.4l-139.92 101.8 353.8 206-213.88-307.8zM103.4 219.8l154.24 323 223.6-363.4-377.84 40.4zM766.2 542.6l154.34-322.8-377.8-40.48 223.46 363.28zM788.2 570.8l139.5 101.44c-0.1-0.44 0.3-0.64 0.3-1.24v-392.6l-139.8 292.4zM131.72 184.6l364.28-39v-173.12l-364.28 212.12zM528-27.6v173.12l364.2 39.040-364.2-212.16z" />
<glyph unicode="&#xe920;" glyph-name="abstract-shape-13" data-tags="abstract-shape-13" d="M463.2 960c8.286 0 16.37-6.62 16.37-17.048v-989.8c0.030-10.152-7.77-17.152-16.17-17.152-3.448 0-6.976 1.172-10.070 3.774l-447.2 377.6c-4.056 3.426-6.13 8.226-6.13 13.226 0 3.632 1.1 7.294 3.364 10.402l447.236 612.324c1.6 4.612 8 6.674 12.6 6.674zM1024 330.6c0-4.988-2.074-9.922-6.052-13.284l-447.2-377.6c-3.148-2.516-6.548-3.716-10.148-3.716-8.392 0-16.306 6.942-16.306 17.086v989.866c0.106 10.428 8.106 17.048 16.506 17.048 4.624 0 9.312-2.062 12.692-6.674l447.2-612.2c2.308-3.126 3.308-6.726 3.308-10.526z" />
<glyph unicode="&#xe921;" glyph-name="abstract-shape-14" data-tags="abstract-shape-14" d="M1024 341.8c0 14.1-4.636 28.3-14.254 40.14l-448 554.2c-12.746 17.66-31.346 23.86-49.746 23.86s-37-6.2-49.8-23.76l-448-554.2c-9.564-11.84-14.2-26.040-14.2-40.24 0-19.25 8.638-38.3 25.24-50.86l448-340.2c10.96-10.14 24.76-14.74 38.76-14.74 13.75 0 27.24 4.27 38.74 13.020l448 340.2c16.66 14.38 25.26 33.38 25.26 52.58zM464 785.76v-708.76l-354.48 270.2 354.48 438.56zM558.2 77v708.76l354.4-438.6-354.4-270.16z" />
<glyph unicode="&#xe922;" glyph-name="abstract-shape-15" data-tags="abstract-shape-15" d="M1024 341.8c0 14.1-4.636 28.3-14.254 40.14l-448 554.2c-12.746 17.66-31.346 23.86-49.746 23.86s-37-6.2-49.8-23.76l-448-554.2c-9.564-11.84-14.2-26.040-14.2-40.24 0-19.25 8.638-38.3 25.24-50.86l448-340.2c11.56-10.54 24.96-14.74 38.76-14.74 13.75 0 27.24 4.27 38.74 13.020l448 340.2c16.66 14.38 25.26 33.38 25.26 52.58zM64.020 341.8l415.98 514.7v-832l-415.98 317.3zM542.2 24.2v832l414.2-514.6-414.2-317.4z" />
<glyph unicode="&#xe923;" glyph-name="abstract-shape-16" data-tags="abstract-shape-16" d="M1024 341.8c0 14.090-4.684 28.3-14.254 40.14l-448 554.2c-12.746 15.922-31.346 23.86-49.746 23.86s-37-7.938-49.8-23.76l-448-554.2c-9.516-11.84-14.2-26.040-14.2-40.24 0-19.22 8.716-38.24 25.24-50.86l448-340.2c11.36-10.54 25.16-14.74 38.76-14.74 13.686 0 27.32 4.27 38.74 13.020l448 340.2c16.46 14.38 25.26 33.38 25.26 52.58zM494.2-26.6c0.8 0.6-0.6 0.4-1.6 1.2l-448 341.8c-12.058 9.21-12.58 22.54-12.58 25.24 0 0.258 0-0.058 0 0 0 7.256 2.464 14.472 7.096 20.22l448 554.2c2.43 3 5.602 5.054 8.804 6.968v-949.628zM992 341.6c0-2.692-0.515-16.030-12.556-25.24l-448.2-340.2c-0.953-0.73-2.312-0.508-3.328-1.117v948.077c3.218-1.914 6.39-3.98 8.828-6.984l448-554.4c4.856-3.936 7.256-12.936 7.256-20.136 0 0 0 0.2 0 0z" />
<glyph unicode="&#xe924;" glyph-name="abstract-shape-17" data-tags="abstract-shape-17" horiz-adv-x="896" d="M15.988 653c2.652 0 5.374-0.702 7.95-2.238l392.062-233.762v-447.6c0-19.482-15.312-33.42-32.020-33.42-5.376 0-10.898 1.442-16.1 4.606l-304.4 184.94c-39.22 23.874-63.48 67.874-63.48 115.474v395.4c0 11.4 7.634 16.6 15.988 16.6zM852.4 725.6c0-5.65-2.704-11.294-8.102-14.496l-396.298-236.304-396.24 236.4c-5.38 3.2-8.060 10.6-8.060 14.4 0 5.6 2.64 11.206 7.93 14.442l330.2 201.8c21.57 12.112 43.97 18.158 66.17 18.158s44.54-6.046 64.44-18.14l330.2-201.8c6.96-3.26 9.76-8.86 9.76-14.46zM880 653c8.4 0 16-5.2 16-16.6v-395.4c0-47.5-24.24-91.5-63.56-115.38l-304.4-185c-5.040-3.22-10.64-4.62-16.040-4.62-16.6 0-32 14-32 33.4v447.6l392 233.8c2.6 1.6 5.4 2.2 8 2.2z" />
<glyph unicode="&#xe925;" glyph-name="abstract-shape-18" data-tags="abstract-shape-18" horiz-adv-x="896" d="M863.8 727.8l-384 223.8c-9.8 5.524-20.8 8.4-31.8 8.4s-22-2.876-31.8-8.5l-384-223.8c-19.95-9.9-32.2-33.1-32.2-56.7v-446c0-23.5 12.25-44.96 32.24-56.72l384-223.8c9.76-5.68 20.76-8.48 31.76-8.48s22 2.876 31.76 8.5l384 223.8c20.040 11.7 32.24 33.1 32.24 56.7v446c0 23.6-12.2 46.8-32.2 56.8zM448 858.8l304.8-177.52-304.8-177.68-304.74 177.6 304.74 177.6zM96 597.8l304-177.28v-355.2l-304 176.88v355.6zM496 65.2v355.2l304 177.28v-355.6l-304-176.88z" />
<glyph unicode="&#xe926;" glyph-name="abstract-shape-19" data-tags="abstract-shape-19" horiz-adv-x="896" d="M863.8 727.8l-384 223.8c-9.8 5.524-20.8 8.4-31.8 8.4s-22-2.876-31.8-8.5l-384-223.8c-19.95-9.9-32.2-33.1-32.2-56.7v-446c0-23.5 12.25-44.96 32.24-56.72l384-223.8c9.76-5.68 20.76-8.48 31.76-8.48s22 2.876 31.76 8.5l384 223.8c20.040 11.7 32.24 33.1 32.24 56.7v446c0 23.6-12.2 46.8-32.2 56.8zM448 895.8l351.6-205.8-351.6-205-352.2 205.6 352.2 205.2zM64.5 634.8l351.5-205v-410.8l-352 206 0.5 409.8zM480 18.2v411.6l352 205.2-0.5-411.6-351.5-205.2z" />
<glyph unicode="&#xe927;" glyph-name="abstract-shape-20" data-tags="abstract-shape-20" horiz-adv-x="896" d="M863.8 727.8l-384 223.8c-8.2 4.65-22.4 8.4-31.8 8.4s-23.6-3.75-31.8-8.5l-384-223.8c-19.888-11.5-32.2-33.3-32.2-56.7v-446c0-23.38 12.312-45.080 32.24-56.72l384-223.8c4.16-0.68 9.96-2.68 15.76-6.080v-2.4h32v2.472c5.876 1.57 11.594 3.598 15.75 6.028l384 223.8c19.85 11.5 32.25 33.3 32.25 56.7v446c0 23.4-12.4 45.2-32.2 56.8zM432-27.6l-383.6 223.4c-10.12 6-16.4 17-16.4 29v442.4l400-228.6v-466.2zM448 466.4l-403 230.2c1.25 1.020 1.937 2.602 3.352 3.426l384 223.6c3.248 2.034 11.848 4.374 15.648 4.374s12.336-2.344 15.648-4.278l382.2-223.6c1.414-0.828 2.102-2.414 3.368-3.438l-401.216-230.284zM864 224.8c0-11.988-6.274-23.1-16.352-28.98l-383.648-223.42v466.4l400 228.6v-442.6z" />
<glyph unicode="&#xe928;" glyph-name="abstract-shape-21" data-tags="abstract-shape-21" d="M462.6 960c8.434 0 16.526-6.662 16.526-16.73v-648.6l-468.204 170.13c-6.986 2.6-10.922 9.2-10.922 15.8 0 4.15 1.508 8.35 4.734 11.672l446.266 462.686c3.4 3.484 7.6 5.042 11.6 5.042zM62.22 350.8c0 8.754 7.002 16.966 16.218 16.966 1.857 0 3.804-0.333 5.8-1.062l395-143.32v-270.6c-0.038-10.184-8.238-16.784-16.638-16.784-4.076 0-8.232 1.558-11.59 5.040l-383.97 398.16c-3.36 3.6-4.82 7.6-4.82 11.6zM1024 480.6c0-6.71-3.936-13.302-10.922-15.888l-468.2-170.060v648.556c0 10.114 8.098 16.79 16.536 16.79 4.076 0 8.232-1.558 11.59-5.040l446.4-462.6c2.996-3.358 4.596-7.558 4.596-11.758zM945.6 367.8c9.216 0 16.218-8.21 16.218-16.966 0-3.996-1.459-8.104-4.832-11.598l-384-398.2c-3.386-3.436-7.586-5.036-11.586-5.036-8.438 0-16.536 6.676-16.536 16.79v270.61l395 143.32c1.936 0.68 3.936 1.080 5.736 1.080z" />
<glyph unicode="&#xe929;" glyph-name="abstract-shape-22" data-tags="abstract-shape-22" d="M1024 448c0 17.25-6.61 34.5-19.736 47.76l-444.4 444.6c-13.264 13.116-30.664 19.64-47.864 19.64s-34.6-6.524-47.8-19.774l-444.464-444.426c-13.126-13.4-19.736-30.6-19.736-47.8s6.61-34.6 19.736-47.8l444.4-444.6c13.264-13 30.664-19.6 47.864-19.6s34.52 6.524 47.78 19.774l444.4 444.6c13.22 13.226 19.82 30.226 19.82 47.626zM560 804.24l332.8-332.8-332.8-142.76v475.56zM462.2 328.8l-331 142.8 331 332.64v-475.44zM462.2 224.2v-132.5l-232 232 232-99.5zM560 224.2l232 99.5-232-232v132.5z" />
<glyph unicode="&#xe92a;" glyph-name="abstract-shape-23" data-tags="abstract-shape-23" d="M1024 448c0 17.286-6.61 34.64-19.736 47.76l-444.4 444.6c-13.264 13.12-30.664 19.64-47.864 19.64s-34.6-6.52-47.8-19.774l-444.464-444.426c-13.126-13.2-19.736-30.6-19.736-47.8s6.61-34.54 19.736-47.68l444.4-444.6c13.264-13.12 30.264-19.72 47.864-19.72s34.52 6.52 47.78 19.774l444.4 444.6c13.22 12.826 19.82 30.226 19.82 47.626zM478.2 30.2l-355.74 358 357.6-153.28v-204.72zM478.2 304.4l-390.76 168.2 390.76 392.88v-561.080zM544 30.2v204.6l357.6 153.28-357.6-357.88zM544 304.4v561.2l392.6-393-392.6-168.2z" />
<glyph unicode="&#xe92b;" glyph-name="abstract-shape-24" data-tags="abstract-shape-24" d="M1024 448c0 17.276-6.518 34.54-19.736 47.76l-444.4 444.6c-13.264 13.056-30.664 19.64-47.864 19.64s-34.6-6.584-47.8-19.774l-444.464-444.426c-13.218-13.4-19.736-30.6-19.736-47.8s6.518-34.4 19.736-47.8l444.4-444.6c13.264-13 30.464-19.6 47.864-19.6s34.58 6.584 47.78 19.774l444.4 444.6c13.22 13.026 19.82 30.226 19.82 47.626zM496-27.8c-3.282 1.676-6.516 3.484-9.202 6.17l-440.4 440.6 449.6-174.12v-272.65zM496 279.2l-461.96 180.6c1.62 3.8 4.1 9 8.42 13.2l444.4 444.4c2.54 2.8 5.94 6.4 9.14 6.28v-644.48zM537.2-21.6c-2.672-2.672-5.906-4.47-9.172-6.146v272.6l449.6 174.1-440.428-440.554zM528 279.2v644.46c3.282-1.68 6.538-3.486 9.172-6.114l444.4-444.4c4.228-4.346 6.828-9.546 6.628-13.346l-460.2-180.6z" />
<glyph unicode="&#xe92c;" glyph-name="abstract-shield-0" data-tags="abstract-shield-0" d="M940.493 448c-54.477 136.499-63.744 291.174-21.453 359.834 4.943 7.387 7.889 16.474 7.889 26.25 0 8.565-2.261 16.602-6.22 23.546l0.123-0.234c-26.010 47.258-135.27 69.53-171.213 76.8-70.549 14.758-152.347 24.071-236.012 25.782l-1.403 0.023h-0.41c-84.97-1.669-166.727-10.91-245.962-27.084l8.701 1.484c-35.84-7.322-145.203-29.594-171.213-76.8-3.918-6.767-6.23-14.887-6.23-23.548 0-9.762 2.938-18.838 7.978-26.393l-0.109 0.174c42.291-68.659 33.024-223.334-21.453-359.834-51.814-129.69 1.024-250.88 141.261-324.454 22.938-11.981 43.981-22.426 64.358-32.512 76.8-38.144 137.574-68.25 208.026-139.93l14.848-15.104 14.848 15.104c70.451 71.68 131.174 101.786 208.026 139.93 20.48 10.24 41.421 20.48 64.307 32.512 140.339 73.574 193.126 194.765 141.312 324.454zM789.555 142.029c-111.462-58.368-186.010-83.149-277.555-176.282-91.546 93.133-166.093 117.76-277.555 176.282-101.939 53.453-188.877 154.88-131.635 298.24s65.792 303.923 20.019 378.47c-44.902 73.165 235.366 118.733 389.171 120.422 153.6-1.69 434.074-47.258 389.12-120.422-45.773-74.547-37.222-235.11 20.019-378.47s-29.645-244.787-131.584-298.24zM875.52 830.003l2.765 4.762-3.994 3.789c-6.554 6.195-35.84 27.904-135.117 48.128-67.529 14.071-145.837 22.958-225.924 24.605l-1.353 0.022c-81.377-1.683-159.612-10.569-235.444-26.055l8.372 1.428c-99.482-20.224-128.666-41.933-135.117-48.128l-3.994-3.789 2.765-4.762c48.742-84.070 40.55-248.576-19.917-400.077-57.754-144.64 49.613-227.021 118.733-263.219 22.272-11.674 43.008-21.965 63.386-32.051 69.888-34.662 130.253-64.614 196.608-125.696l4.71-4.352 4.71 4.352c66.56 61.082 126.72 91.034 196.915 125.85 20.070 9.933 40.96 20.224 63.078 31.898 69.12 36.198 176.486 118.579 118.733 263.219-60.416 151.194-68.557 315.75-19.917 400.077z" />
<glyph unicode="&#xe92d;" glyph-name="abstract-sun-award-0" data-tags="abstract-sun-award-0" d="M437.402 868.608h0.41c1.221 0.235 2.13 1.294 2.13 2.567 0 0.142-0.011 0.282-0.033 0.418l0.002-0.015-5.734 32.512c-0.23 1.197-1.269 2.088-2.516 2.088-0.16 0-0.317-0.015-0.469-0.043l0.016 0.002c-1.193-0.209-2.088-1.236-2.088-2.473 0-0.157 0.014-0.311 0.042-0.461l-0.002 0.015 5.734-32.512c0.204-1.198 1.234-2.099 2.475-2.099 0.012 0 0.024 0 0.035 0h-0.002zM308.019 826.214c0.432-0.822 1.277-1.374 2.252-1.382h0.001c0.004 0 0.009 0 0.014 0 0.428 0 0.829 0.114 1.175 0.313l-0.011-0.006c0.826 0.436 1.379 1.289 1.379 2.271 0 0.443-0.113 0.86-0.311 1.224l0.007-0.013-15.565 28.979c-0.411 0.899-1.301 1.512-2.335 1.512-1.414 0-2.56-1.146-2.56-2.56 0-0.503 0.145-0.973 0.396-1.368l-0.006 0.010zM201.114 744.653c0.468-0.438 1.098-0.71 1.791-0.717h0.001c1.398 0.020 2.524 1.158 2.524 2.56 0 0.724-0.3 1.377-0.783 1.843l-0.001 0.001-23.706 22.886c-0.456 0.465-1.090 0.753-1.792 0.753s-1.336-0.288-1.792-0.753v0c-0.468-0.464-0.757-1.107-0.757-1.818s0.29-1.354 0.757-1.817v0zM95.027 648.55l29.645-14.49c0.33-0.157 0.717-0.25 1.124-0.256h0.002c0.169-0.039 0.364-0.061 0.563-0.061 1.448 0 2.621 1.174 2.621 2.621 0 1.248-0.872 2.292-2.040 2.557l-0.018 0.003-29.645 14.182c-0.324 0.155-0.704 0.245-1.105 0.245-1.008 0-1.883-0.572-2.318-1.409l-0.007-0.014c-0.164-0.324-0.259-0.706-0.259-1.111 0-0.996 0.581-1.857 1.422-2.262l0.015-0.007zM54.17 514.918c-0.108 0.016-0.232 0.025-0.358 0.025-1.428 0-2.585-1.157-2.585-2.585 0-1.301 0.961-2.378 2.213-2.558l0.014-0.002 17.306-2.406v5.12zM55.91 370.176c-1.317-0.122-2.34-1.222-2.34-2.56 0-1.42 1.151-2.57 2.57-2.57 0.081 0 0.161 0.004 0.241 0.011l-0.010-0.001h0.41l13.978 2.458v5.12zM103.475 228.25c0.45 0.004 0.872 0.118 1.244 0.314l-0.015-0.007 29.082 15.36c0.899 0.411 1.512 1.301 1.512 2.335 0 1.414-1.146 2.56-2.56 2.56-0.503 0-0.973-0.145-1.368-0.396l0.010 0.006-28.979-15.462c-0.817-0.452-1.362-1.309-1.362-2.293 0-0.434 0.106-0.843 0.293-1.203l-0.007 0.014c0.444-0.739 1.24-1.226 2.15-1.229v0zM215.296 140.8c-0.464 0.468-1.107 0.757-1.818 0.757s-1.354-0.29-1.817-0.757v0l-22.886-23.706c-0.465-0.456-0.753-1.090-0.753-1.792s0.288-1.336 0.753-1.792v0c0.468-0.438 1.098-0.71 1.791-0.717h0.001c0.009 0 0.019 0 0.029 0 0.695 0 1.322 0.295 1.761 0.767l0.001 0.001 22.938 23.706c0.427 0.463 0.688 1.084 0.688 1.766s-0.262 1.303-0.69 1.768l0.002-0.002zM324.762 64c-0.318 0.145-0.69 0.23-1.082 0.23-1.011 0-1.89-0.563-2.341-1.393l-0.007-0.014-14.438-29.542c-0.165-0.329-0.262-0.718-0.262-1.129 0-1.006 0.58-1.877 1.425-2.295l0.015-0.007c0.33-0.157 0.717-0.25 1.124-0.256h0.002c0.986 0.018 1.833 0.591 2.246 1.419l0.007 0.015 14.49 29.645c0.132 0.302 0.208 0.653 0.208 1.022 0 0.994-0.555 1.858-1.372 2.299l-0.014 0.007zM452.557 24.986c-0.101 0.014-0.218 0.022-0.337 0.022-1.277 0-2.336-0.935-2.529-2.158l-0.002-0.014-4.608-32.666c-0.014-0.101-0.022-0.218-0.022-0.337 0-1.277 0.935-2.336 2.158-2.529l0.014-0.002h0.358c1.275 0.005 2.334 0.923 2.558 2.134l0.002 0.016 4.557 32.666c0.018 0.114 0.029 0.246 0.029 0.38 0 1.269-0.943 2.319-2.166 2.486l-0.013 0.001zM586.189 27.341c-1.221-0.235-2.13-1.294-2.13-2.567 0-0.142 0.011-0.282 0.033-0.418l-0.002 0.015 5.734-32.461c0.225-1.199 1.262-2.094 2.508-2.099h0.462c1.193 0.209 2.088 1.236 2.088 2.473 0 0.157-0.014 0.311-0.042 0.461l0.002-0.015-5.734 32.512c-0.187 1.217-1.227 2.138-2.481 2.138-0.155 0-0.306-0.014-0.453-0.041l0.015 0.002zM715.981 69.786c-0.411 0.899-1.301 1.512-2.335 1.512-1.414 0-2.56-1.146-2.56-2.56 0-0.503 0.145-0.973 0.396-1.368l-0.006 0.010 15.36-29.082c0.441-0.814 1.28-1.363 2.25-1.382h0.003c0.45 0.004 0.872 0.118 1.244 0.314l-0.015-0.007c0.804 0.442 1.34 1.284 1.34 2.25 0 0.452-0.117 0.876-0.322 1.244l0.007-0.013zM822.886 151.347c-0.469 0.456-1.111 0.736-1.818 0.736s-1.348-0.281-1.818-0.737l0.001 0.001c-0.468-0.464-0.757-1.107-0.757-1.818s0.29-1.354 0.757-1.817v0l23.706-22.886c0.449-0.44 1.062-0.713 1.74-0.717h0.001c0.005 0 0.010 0 0.015 0 1.414 0 2.56 1.146 2.56 2.56 0 0.724-0.3 1.377-0.783 1.843l-0.001 0.001zM928.973 247.45l-29.645 14.49c-0.329 0.164-0.716 0.261-1.126 0.261-1.416 0-2.565-1.148-2.565-2.565 0-1.006 0.58-1.877 1.423-2.297l0.015-0.007 29.645-14.438c0.331-0.15 0.716-0.243 1.122-0.256h0.005c0.002 0 0.003 0 0.005 0 1.004 0 1.873 0.578 2.292 1.419l0.007 0.015c0.164 0.324 0.259 0.706 0.259 1.111 0 0.996-0.581 1.857-1.422 2.262l-0.015 0.007zM969.83 381.082h0.358c0.054-0.004 0.116-0.006 0.179-0.006 1.417 0 2.566 1.149 2.566 2.566 0 1.354-1.049 2.463-2.379 2.56h-0.008l-17.306 2.406v-5.12zM1021.44 450.56h-68.198v-5.12h68.198c1.414 0 2.56 1.146 2.56 2.56s-1.146 2.56-2.56 2.56v0zM512 804.147c165.156-0.214 304-112.618 344.424-265.082l0.561-2.489h5.12c-1.741 6.963-3.686 13.824-5.837 20.48l141.005 45.773c1.028 0.366 1.751 1.332 1.751 2.466 0 0.271-0.041 0.533-0.118 0.778l0.005-0.018c-0.345 1.033-1.304 1.764-2.433 1.764-0.283 0-0.556-0.046-0.811-0.131l0.018 0.005-141.056-46.080c-6.961 20.765-14.63 38.361-23.611 55.151l0.93-1.903 39.834 21.146c0.804 0.442 1.34 1.284 1.34 2.25 0 0.452-0.117 0.876-0.322 1.244l0.007-0.013c-0.43 0.801-1.261 1.336-2.218 1.336-0.445 0-0.863-0.116-1.225-0.319l0.013 0.007-39.731-21.094c-8.124 14.934-16.112 27.518-24.83 39.537l0.715-1.035 120.115 87.040c0.633 0.482 1.037 1.235 1.037 2.084 0 0.562-0.178 1.083-0.48 1.509l0.005-0.008c-0.472 0.63-1.216 1.033-2.055 1.033-0.554 0-1.067-0.176-1.486-0.475l0.008 0.005-120.064-87.040c-12.003 16.11-24.46 30.352-37.931 43.565l-0.059 0.058 31.334 32.512c0.478 0.449 0.776 1.086 0.776 1.792s-0.298 1.343-0.774 1.791l-0.001 0.001c-0.456 0.465-1.090 0.753-1.792 0.753s-1.336-0.288-1.792-0.753v0l-31.386-32.512c-10.545 10.057-21.846 19.621-33.696 28.492l-0.966 0.692 87.040 120.064c0.225 0.373 0.357 0.823 0.357 1.305 0 1.414-1.146 2.56-2.56 2.56-0.776 0-1.472-0.346-1.942-0.892l-0.003-0.003-87.296-119.962c-14.264 10.397-30.476 20.333-47.465 28.959l-2.045 0.942 19.712 40.499c0.165 0.329 0.262 0.718 0.262 1.129 0 1.006-0.58 1.877-1.425 2.295l-0.015 0.007c-0.324 0.164-0.706 0.259-1.111 0.259-0.996 0-1.857-0.581-2.262-1.422l-0.007-0.015-19.712-40.448c-11.334 5.639-25.234 11.373-39.545 16.216l-2.49 0.731 46.080 141.056c0.080 0.237 0.126 0.509 0.126 0.792 0 1.129-0.731 2.088-1.746 2.428l-0.018 0.005c-0.227 0.072-0.489 0.113-0.76 0.113-1.134 0-2.099-0.723-2.46-1.733l-0.006-0.018-45.773-141.005c-15.831 5.276-34.833 9.812-54.356 12.761l-1.964 0.244 6.246 44.544c0.014 0.101 0.022 0.218 0.022 0.337 0 1.277-0.935 2.336-2.158 2.529l-0.014 0.002c-0.101 0.014-0.218 0.022-0.337 0.022-1.277 0-2.336-0.935-2.529-2.158l-0.002-0.014-6.298-44.595c-13.451 1.891-29.104 3.041-45 3.173l-0.158 0.001v148.275c0 1.414-1.146 2.56-2.56 2.56s-2.56-1.146-2.56-2.56v0-148.48c-20.52-0.213-40.447-2.067-59.854-5.437l2.202 0.317-7.834 44.288c-0.209 1.193-1.236 2.088-2.473 2.088-0.157 0-0.311-0.014-0.461-0.042l0.015 0.002c-1.193-0.182-2.097-1.201-2.097-2.431 0-0.173 0.018-0.341 0.052-0.503l-0.003 0.016 7.782-44.339c-17.341-3.174-32.128-6.952-46.517-11.616l2.536 0.711-45.926 141.312c-0.366 1.028-1.332 1.751-2.466 1.751-0.271 0-0.533-0.041-0.778-0.118l0.018 0.005c-1.033-0.345-1.764-1.304-1.764-2.433 0-0.283 0.046-0.556 0.131-0.811l-0.005 0.018 46.080-141.056c-20.765-6.961-38.361-14.63-55.151-23.611l1.903 0.93-21.402 39.834c-0.458 0.795-1.303 1.322-2.271 1.322-0.443 0-0.86-0.11-1.225-0.305l0.014 0.007c-0.801-0.43-1.336-1.261-1.336-2.218 0-0.445 0.116-0.863 0.319-1.225l-0.007 0.013 21.094-39.987c-14.78-8.071-27.229-15.989-39.125-24.624l1.032 0.714-87.040 120.115c-0.472 0.549-1.168 0.895-1.945 0.895-1.414 0-2.56-1.146-2.56-2.56 0-0.481 0.133-0.932 0.364-1.316l-0.006 0.012 87.040-120.064c-16.11-12.003-30.352-24.46-43.565-37.931l-0.058-0.059-32.512 31.334c-0.417 0.307-0.941 0.491-1.508 0.491-1.414 0-2.56-1.146-2.56-2.56 0-0.593 0.201-1.138 0.54-1.572l-0.004 0.006 32.512-31.437c-10.081-10.531-19.645-21.817-28.504-33.661l-0.68-0.951-120.064 87.040c-0.411 0.294-0.924 0.47-1.478 0.47-0.839 0-1.583-0.403-2.050-1.026l-0.005-0.007c-0.297-0.418-0.474-0.938-0.474-1.5 0-0.848 0.404-1.602 1.031-2.079l0.006-0.005 119.91-87.245c-10.415-14.27-20.352-30.482-28.967-47.478l-0.934-2.032-40.499 19.712c-0.324 0.155-0.704 0.245-1.105 0.245-1.008 0-1.883-0.572-2.318-1.409l-0.007-0.014c-0.164-0.324-0.259-0.706-0.259-1.111 0-0.996 0.581-1.857 1.422-2.262l0.015-0.007 40.448-19.712c-5.639-11.334-11.373-25.234-16.216-39.545l-0.731-2.49-141.056 46.080c-0.237 0.080-0.509 0.126-0.792 0.126-1.129 0-2.088-0.731-2.428-1.746l-0.005-0.018c-0.072-0.227-0.113-0.489-0.113-0.76 0-1.134 0.723-2.099 1.733-2.46l0.018-0.006 141.005-45.773c-2.15-6.81-4.045-13.67-5.837-20.48h5.12c41.083 154.873 179.919 267.183 345.016 267.366h0.021zM2.56 450.56c-1.414 0-2.56-1.146-2.56-2.56s1.146-2.56 2.56-2.56v0h68.198v5.12zM512 91.853c-165.15 0.233-303.984 112.628-344.424 265.081l-0.562 2.49h-5.12c1.741-6.963 3.686-13.824 5.837-20.48l-141.056-45.926c-1.245-0.205-2.183-1.273-2.183-2.56 0-1.432 1.161-2.593 2.593-2.593 0.145 0 0.286 0.012 0.425 0.035l-0.015-0.002c0.115-0.023 0.248-0.036 0.384-0.036s0.269 0.013 0.397 0.038l-0.013-0.002 141.056 46.080c6.961-20.765 14.63-38.361 23.611-55.151l-0.93 1.903-39.834-21.146c-0.804-0.442-1.34-1.284-1.34-2.25 0-0.452 0.117-0.876 0.322-1.244l-0.007 0.013c0.453-0.794 1.29-1.322 2.252-1.331h0.001c0.004 0 0.009 0 0.014 0 0.428 0 0.829 0.114 1.175 0.313l-0.011-0.006 39.987 21.094c8.071-14.78 15.989-27.229 24.624-39.125l-0.714 1.032-120.115-87.040c-0.625-0.472-1.025-1.214-1.025-2.048 0-1.396 1.118-2.531 2.507-2.559h0.003c0.006 0 0.013 0 0.019 0 0.549 0 1.057 0.173 1.473 0.466l-0.008-0.005 120.064 87.040c11.999-16.113 24.474-30.357 37.974-43.556l0.068-0.066-31.386-32.512c-0.478-0.449-0.776-1.086-0.776-1.792s0.298-1.343 0.774-1.791l0.001-0.001c0.421-0.443 1.014-0.718 1.671-0.718 0.025 0 0.049 0 0.073 0.001h-0.004c0.72 0.002 1.372 0.295 1.843 0.768v0l31.386 32.512c10.545-10.057 21.846-19.621 33.696-28.492l0.966-0.692-87.040-120.064c-0.294-0.411-0.47-0.924-0.47-1.478 0-0.839 0.403-1.583 1.026-2.050l0.007-0.005c0.398-0.319 0.91-0.512 1.466-0.512 0.007 0 0.013 0 0.020 0h-0.001c0.012 0 0.026 0 0.040 0 0.849 0 1.6 0.422 2.054 1.068l0.005 0.008 87.040 120.115c14.264-10.397 30.476-20.333 47.465-28.959l2.045-0.942-19.712-40.499c-0.165-0.329-0.262-0.718-0.262-1.129 0-1.006 0.58-1.877 1.425-2.295l0.015-0.007c0.315-0.15 0.683-0.243 1.071-0.256h0.005c0.002 0 0.003 0 0.005 0 1.004 0 1.873 0.578 2.292 1.419l0.007 0.015 19.712 40.448c11.334-5.639 25.234-11.373 39.545-16.216l2.49-0.731-46.080-141.056c-0.080-0.237-0.126-0.509-0.126-0.792 0-1.129 0.731-2.088 1.746-2.428l0.018-0.005h0.768c0.010 0 0.021 0 0.032 0 1.121 0 2.073 0.72 2.42 1.723l0.005 0.018 45.773 141.005c15.831-5.276 34.833-9.812 54.356-12.761l1.964-0.244-6.246-44.544c-0.014-0.101-0.022-0.218-0.022-0.337 0-1.277 0.935-2.336 2.158-2.529l0.014-0.002h0.973c1.262 0.009 2.306 0.93 2.507 2.135l0.002 0.015 6.298 44.595c13.451-1.891 29.104-3.041 45-3.173l0.158-0.001v-148.48c0-1.414 1.146-2.56 2.56-2.56s2.56 1.146 2.56 2.56v0 148.48c20.52 0.213 40.447 2.067 59.854 5.437l-2.202-0.317 7.834-44.288c0.203-1.192 1.224-2.090 2.457-2.099h0.462c1.193 0.182 2.097 1.201 2.097 2.431 0 0.173-0.018 0.341-0.052 0.503l0.003-0.016-7.782 44.339c17.341 3.174 32.128 6.952 46.517 11.616l-2.536-0.711 45.773-141.005c0.352-1.021 1.305-1.741 2.425-1.741 0.011 0 0.023 0 0.034 0h0.766c1.033 0.345 1.764 1.304 1.764 2.433 0 0.283-0.046 0.556-0.131 0.811l0.005-0.018-46.080 141.056c20.765 6.961 38.361 14.63 55.151 23.611l-1.903-0.93 21.146-39.834c0.453-0.794 1.29-1.322 2.252-1.331h0.001c0.45 0.004 0.872 0.118 1.244 0.314l-0.015-0.007c0.801 0.43 1.336 1.261 1.336 2.218 0 0.445-0.116 0.863-0.319 1.225l0.007-0.013-21.094 39.731c14.843 8.143 27.358 16.145 39.311 24.872l-1.014-0.705 87.040-120.115c0.459-0.654 1.21-1.076 2.059-1.076 0.014 0 0.028 0 0.042 0h-0.002c0.006 0 0.012 0 0.019 0 0.556 0 1.068 0.193 1.471 0.516l-0.005-0.004c0.63 0.472 1.033 1.216 1.033 2.055 0 0.554-0.176 1.067-0.475 1.486l0.005-0.008-87.040 120.064c16.11 12.003 30.352 24.46 43.565 37.931l0.058 0.059 32.512-31.334c0.437-0.443 1.043-0.717 1.714-0.717 0.010 0 0.019 0 0.029 0h-0.001c0.72 0.002 1.372 0.295 1.843 0.768v0c0.465 0.456 0.753 1.090 0.753 1.792s-0.288 1.336-0.753 1.792v0l-32.512 31.437c10.081 10.531 19.645 21.817 28.504 33.661l0.68 0.951 120.064-87.040c0.409-0.288 0.917-0.461 1.465-0.461 0.007 0 0.014 0 0.020 0h-0.001c1.392 0.028 2.509 1.163 2.509 2.56 0 0.835-0.4 1.577-1.018 2.044l-120.122 87.045c10.415 14.27 20.352 30.482 28.967 47.478l0.934 2.032 40.499-19.712c0.303-0.162 0.663-0.257 1.046-0.257 0.028 0 0.057 0.001 0.085 0.002h-0.004c0.002 0 0.003 0 0.005 0 1.004 0 1.873 0.578 2.292 1.419l0.007 0.015c0.164 0.324 0.259 0.706 0.259 1.111 0 0.996-0.581 1.857-1.422 2.262l-0.015 0.007-40.448 19.712c5.639 11.334 11.373 25.234 16.216 39.545l0.731 2.49 141.056-46.080c0.115-0.023 0.248-0.036 0.384-0.036s0.269 0.013 0.397 0.038l-0.013-0.002c0.123-0.021 0.265-0.033 0.41-0.033 1.432 0 2.593 1.161 2.593 2.593 0 1.287-0.938 2.355-2.168 2.558l-0.015 0.002-141.005 45.773c2.15 6.81 4.045 13.67 5.837 20.48h-5.12c-40.952-155.013-179.833-267.472-345.014-267.674h-0.023zM968.090 525.824c1.235 0.216 2.162 1.28 2.162 2.56 0 1.434-1.163 2.597-2.597 2.597-0.154 0-0.304-0.013-0.451-0.039l0.016 0.002-13.978-2.458v-5.12zM919.296 667.443l-29.082-15.36c-0.807-0.442-1.345-1.285-1.345-2.253 0-1.401 1.125-2.538 2.52-2.56h0.002c0.45 0.004 0.872 0.118 1.244 0.314l-0.015-0.007 28.979 15.462c0.899 0.411 1.512 1.301 1.512 2.335 0 1.414-1.146 2.56-2.56 2.56-0.503 0-0.973-0.145-1.368-0.396l0.010 0.006zM808.96 755.2c0.473-0.431 1.099-0.7 1.789-0.717h0.003c0.003 0 0.007 0 0.011 0 0.727 0 1.38 0.315 1.83 0.817l0.002 0.002 22.886 23.706c0.307 0.417 0.491 0.941 0.491 1.508 0 1.414-1.146 2.56-2.56 2.56-0.593 0-1.138-0.201-1.572-0.54l0.006 0.004-22.938-23.706c-0.44-0.466-0.711-1.097-0.711-1.791 0-0.72 0.291-1.372 0.762-1.844v0zM699.238 832c0.324-0.187 0.711-0.3 1.124-0.307h0.002c0.999 0.023 1.86 0.592 2.297 1.419l0.007 0.014 14.438 29.594c0.165 0.329 0.262 0.718 0.262 1.129 0 1.006-0.58 1.877-1.425 2.295l-0.015 0.007c-0.324 0.164-0.706 0.259-1.111 0.259-0.996 0-1.857-0.581-2.262-1.422l-0.007-0.015-14.49-29.645c-0.141-0.307-0.223-0.667-0.223-1.045 0-0.991 0.563-1.85 1.387-2.276l0.014-0.007zM571.443 871.014h0.358c1.277 0.013 2.328 0.959 2.507 2.188l0.002 0.014 4.608 32.666c0.014 0.101 0.022 0.218 0.022 0.337 0 1.277-0.935 2.336-2.158 2.529l-0.014 0.002c-0.103 0.015-0.223 0.023-0.344 0.023-1.287 0-2.357-0.932-2.572-2.158l-0.002-0.016-4.557-32.666c-0.019-0.116-0.029-0.25-0.029-0.387 0-1.28 0.939-2.34 2.165-2.53l0.014-0.002zM832.768 536.576h5.12c-40.361 144.711-171.009 249.112-326.042 249.112s-285.681-104.402-325.474-246.735l-0.567-2.377h5.12zM191.232 359.424h-5.12c40.361-144.711 171.009-249.112 326.042-249.112s285.681 104.402 325.474 246.735l0.567 2.377h-5.12zM68.198 539.136v-182.272h887.603v182.272zM950.733 361.984h-877.414v172.032h877.414zM936.243 520.141h-848.486v-144.282h848.486zM931.123 380.979h-838.298v134.042h838.349z" />
<glyph unicode="&#xe92e;" glyph-name="acorn-0" data-tags="acorn-0" horiz-adv-x="896" d="M0.003 640c0 0 0 0 0 0s0 0 0 0zM448 0c94.1 45.74 352 164.26 352 510.2h-704c0-346 256.2-464.4 352-510.2zM894.2 640c0 0 0 0 0 0s0 0 0 0zM704 831.92l-201-0.003c6.75 18.746 17 36.24 30.24 50.2 11.36 14.803 10.76 33.803-3.040 45.543l-22.5 22.74c-6.25 6.25-15.5 10.25-24 9.5-8.75-0.5-17-4.25-22.76-10.75-29.5-33.5-49-72.2-58.76-117.24l-210.18 0.010c-105.98 0-191.98-85.96-190.2-191.94-1.789-35.18 26.96-63.98 62.2-63.98h768c35.24 0 62.2 28.74 62.2 63.96 0 106.040-86 191.96-190.2 191.96z" />
<glyph unicode="&#xe92f;" glyph-name="acorn-1" data-tags="acorn-1" horiz-adv-x="896" d="M894.2 640c0 106-86 191.92-190.2 191.92l-192.4-0.003c7.398 14.062 18.070 29.88 34.32 46.14 18.75 18.75 18.75 49.12 0 67.88s-49.12 18.75-67.88 0c-41.44-41.517-60.64-83.077-69.64-114.017h-216.4c-105.98 0-191.96-85.98-190.2-191.94l-1.8-63.98c0-35.34 28.66-64 64-64l32-0.001c0-347.799 256.2-466.199 352-511.999 66.080 32.12 352 141.76 352 510.2l32 1.8c35.34 0 64 28.66 64 64l-1.8 64zM448 106.8c-177.8 86.4-256 248.6-256 405.2h512c0-149.6-70.6-315.2-256-405.2zM800 608h-704l0.004 31.96c0.016 52.84 43.076 96.040 95.996 96.040h512c52.92 0 95.98-43.040 96-95.92v-32.080z" />
<glyph unicode="&#xe930;" glyph-name="acorn-2" data-tags="acorn-2" horiz-adv-x="896" d="M704 831.92l-213.2 0.013c8.894 27.38 23.26 52.88 43.8 73.44 12.5 12.5 12.5 32.76 0 45.24s-32.76 12.5-45.24 0c-32.56-32.613-54.96-74.133-65.56-118.673l-231.8-0.020c-106 0-190.2-85.94-190.2-191.94l-1.8-31.98c0-35.24 28.76-64 64-64v-32c0-196 110.76-375.6 286.2-463l97.8-49 97.76 49c175.44 87.4 286.24 267 286.24 463v32c35.24 0 64 28.76 64 64l-0.002 32.020c-1.798 105.98-85.998 191.9-191.998 191.9zM768 512c0-173-96-328.6-250.8-405.8l-69.2-34.8-69.26 34.76c-154.74 77.24-250.74 232.84-250.74 405.84v32h640v-32zM832 608h-768v32c0 70.5 57.5 128 128 128h512c70.5 0 128-57.5 128-128v-32z" />
<glyph unicode="&#xe931;" glyph-name="acorn-3" data-tags="acorn-3" horiz-adv-x="896" d="M0.003 640c0 0 0 0 0 0s0 0 0 0zM894.2 640c0 0 0 0 0 0s0 0 0 0zM704 831.92l-240-0.003c0.031 2.382 1.316 57.040 57.6 99.26 7.062 5.312 8.5 15.344 3.218 22.4-5.312 7.062-15.344 8.532-22.4 3.218-69.6-52.22-70.4-121.92-70.4-124.86 0-0.031 0 0.031 0 0l-240.018-0.015c-105.98 0-191.98-85.96-190.2-191.94-1.789-35.18 26.96-63.98 62.2-63.98h32v-71.28c0-165.22 97.060-383 259.4-461.6l85.54-41.56c2.26-0.96 4.66-1.56 7.060-1.56s4.782 0.531 7 1.594l85.5 41.56c162.5 78.446 259.5 296.246 259.5 461.646v71.2h32c35.24 0 62.2 28.74 62.2 63.96 0 106.040-86 191.96-190.2 191.96zM768 504.8c0-155.34-90.32-359.6-241.4-432.8l-78.6-38.2-78.56 38.18c-151.040 73.020-241.44 277.42-241.44 432.82v71.2h640v-71.2zM832 608h-768c-17.636 0-30.2 14.378-30.2 32-1.78 88.2 70 159.92 158.2 159.92h512c88.2 0 159.98-71.76 158.2-159.94 0-17.58-12.6-31.98-30.2-31.98z" />
<glyph unicode="&#xe932;" glyph-name="address-book-0" data-tags="address-book-0" d="M768 960h-576c-70.7 0-128-57.3-128-128v-768c0-70.7 57.3-128 128-128h576c70.7 0 128 57.3 128 128v768c0 70.7-57.4 128-128 128zM480 704c70.7 0 128-57.3 128-128s-57.3-128-128-128c-70.68 0-128 57.3-128 128s57.4 128 128 128zM672 192h-384c-17.6 0-32 14.4-32 32 0 88.4 71.6 160 160 160h128c88.36 0 160-71.64 160-160 0-17.6-14.4-32-32-32zM992 832h-32v-192h32c17.6 0 32 14.4 32 32v128c0 17.68-14.4 32-32 32zM992 576h-32v-192h32c17.6 0 32 14.4 32 32v128c0 17.6-14.4 32-32 32zM992 320h-32v-192h32c17.672 0 32 14.328 32 32v128c0 17.6-14.4 32-32 32z" />
<glyph unicode="&#xe933;" glyph-name="address-book-1" data-tags="address-book-1" d="M544 384h-128c-88.4 0-160-71.6-160-160 0-17.6 14.4-32 32-32h384c17.672 0 32 14.328 32 32 0 88.4-71.6 160-160 160zM480 448c70.7 0 128 57.3 128 128s-57.3 128-128 128c-70.68 0-128-57.3-128-128s57.4-128 128-128zM992 320h-32v-192h32c17.672 0 32 14.328 32 32v128c0 17.6-14.4 32-32 32zM992 832h-32v-192h32c17.6 0 32 14.4 32 32v128c0 17.68-14.4 32-32 32zM992 576h-32v-192h32c17.6 0 32 14.4 32 32v128c0 17.6-14.4 32-32 32zM768 960h-576c-70.7 0-128-57.3-128-128v-768c0-70.7 57.3-128 128-128h576c70.7 0 128 57.3 128 128v768c0 70.7-57.4 128-128 128zM800 64c0-17.672-14.328-32-32-32h-576c-17.672 0-32 14.328-32 32v768c0 17.676 14.328 32 32 32h576c17.672 0 32-14.324 32-32v-768z" />
<glyph unicode="&#xe934;" glyph-name="address-book-2" data-tags="address-book-2" d="M544 384h-128c-88.4 0-160-71.6-160-160 0-17.6 14.4-32 32-32s32 14.4 32 32c0 53 43 96 96 96h128c53.020 0 96-42.98 96-96 0-17.672 14.328-32 32-32 17.674 0 32 14.328 32 32 0 88.4-71.6 160-160 160zM992 576h-32v-192h32c17.6 0 32 14.4 32 32v128c0 17.6-14.4 32-32 32zM480 448c70.7 0 128 57.3 128 128s-57.3 128-128 128-128-57.3-128-128 57.4-128 128-128zM480 640c35.28 0 64-28.72 64-64s-28.72-64-64-64-64 28.72-64 64 28.8 64 64 64zM992 320h-32v-192h32c17.674 0 32 14.328 32 32v128c0 17.6-14.4 32-32 32zM992 832h-32v-192h32c17.6 0 32 14.4 32 32v128c0 17.68-14.4 32-32 32zM768 960h-576c-70.7 0-128-57.3-128-128v-768c0-70.7 57.3-128 128-128h576c70.7 0 128 57.3 128 128v768c0 70.7-57.4 128-128 128zM832 64c0-35.28-28.72-64-64-64h-576c-35.28 0-64 28.72-64 64v768c0 35.28 28.72 64 64 64h576c35.28 0 64-28.72 64-64v-768z" />
<glyph unicode="&#xe935;" glyph-name="address-book-3" data-tags="address-book-3" d="M800 960h-640c-53.020 0-96-42.98-96-96v-832c0-53 42.98-96 96-96h640c53.020 0 96 42.98 96 96v832c0 53.020-43 96-96 96zM864 32c0-35.28-28.72-64-64-64h-640c-35.28 0-64 28.72-64 64v832c0 35.28 28.72 64 64 64h640c35.28 0 64-28.72 64-64v-832zM480 448c70.7 0 128 57.3 128 128s-57.3 128-128 128c-70.68 0-128-57.3-128-128s57.4-128 128-128zM480 672c53 0 96-43 96-96s-43.060-96-96-96-96 43-96 96 43 96 96 96zM992 832h-16c-8.8 0-16-7.16-16-16s7.164-16 16-16h16v-128h-16c-8.8 0-16-7.2-16-16s7.2-16 16-16h16c17.6 0 32 14.4 32 32v128c0 17.68-14.4 32-32 32zM992 320h-16c-8.8 0-16-7.2-16-16s7.164-16 16-16h16v-128h-16c-8.836 0-16-7.164-16-16s7.2-16 16-16h16c17.672 0 32 14.328 32 32v128c0 17.6-14.4 32-32 32zM992 576h-16c-8.8 0-16-7.2-16-16s7.164-16 16-16h16v-128h-16c-8.8 0-16-7.2-16-16s7.2-16 16-16h16c17.6 0 32 14.4 32 32v128c0 17.6-14.4 32-32 32zM544 384h-128c-88.2 0-160-71.8-160-160v-16c0-8.8 7.2-16 16-16s16 7.156 16 16v16c0 70.6 57.4 128 128 128h128c70.6 0 128-57.4 128-128v-16c0-8.844 7.156-16 16-16s16 7.2 16 16v16c0 88.2-71.8 160-160 160z" />
<glyph unicode="&#xe936;" glyph-name="address-book-4" data-tags="address-book-4" horiz-adv-x="1152" d="M1024 896h-896c-70.7 0-128-57.3-128-128v-640c0-70.7 57.3-128 128-128h896c70.7 0 128 57.3 128 128v640c0 70.7-57.4 128-128 128zM352 704c70.7 0 128-57.3 128-128s-57.3-128-128-128-128 57.3-128 128 57.4 128 128 128zM544 192h-384c-17.68 0-32 14.4-32 32 0 88.4 71.64 160 160 160h128c88.36 0 160-71.64 160-160 0-17.6-14.4-32-32-32zM992 320h-256c-17.6 0-32 14.4-32 32s14.4 32 32 32h256c17.6 0 32-14.4 32-32s-14.4-32-32-32zM992 448h-256c-17.6 0-32 14.4-32 32s14.4 32 32 32h256c17.6 0 32-14.4 32-32s-14.4-32-32-32zM992 576h-256c-17.6 0-32 14.4-32 32s14.4 32 32 32h256c17.6 0 32-14.4 32-32s-14.4-32-32-32z" />
<glyph unicode="&#xe937;" glyph-name="address-book-5" data-tags="address-book-5" horiz-adv-x="1152" d="M416 448c70.7 0 128 57.3 128 128s-57.3 128-128 128-128-57.3-128-128c0-70.6 57.4-128 128-128zM928 496h-192c-26.5 0-48-21.5-48-48s21.5-48 48-48h192c26.5 0 48 21.5 48 48s-21.4 48-48 48zM480 384h-128c-88.4 0-160-71.6-160-160 0-17.6 14.4-32 32-32h384c17.672 0 32 14.328 32 32 0 88.4-71.6 160-160 160zM928 656h-192c-26.5 0-48-21.5-48-48s21.5-48 48-48h192c26.5 0 48 21.5 48 48s-21.4 48-48 48zM1024 896h-896c-70.7 0-128-57.3-128-128v-640c0-70.7 57.3-128 128-128h896c70.7 0 128 57.3 128 128v640c0 70.7-57.4 128-128 128zM1056 128c0-17.644-14.356-32-32-32h-896c-17.644 0-32 14.356-32 32v640c0 17.644 14.356 32 32 32h896c17.644 0 32-14.356 32-32v-640z" />
<glyph unicode="&#xe938;" glyph-name="address-book-6" data-tags="address-book-6" horiz-adv-x="1152" d="M960 384h-256c-17.672 0-32-14.328-32-32s14.4-32 32-32h256c17.672 0 32 14.328 32 32s-14.4 32-32 32zM384 448c70.7 0 128 57.3 128 128s-57.4 128-128 128-128-57.4-128-128 57.4-128 128-128zM384 640c35.28 0 64-28.72 64-64s-28.8-64-64-64-64 28.8-64 64 28.8 64 64 64zM448 384h-128c-88.36 0-160-71.64-160-160 0-17.6 14.32-32 32-32s32 14.328 32 32c0 53 43 96 96 96h128c53.020 0 96-42.98 96-96 0-17.672 14.328-32 32-32s32 14.328 32 32c0 88.4-71.6 160-160 160zM1024 896h-896c-70.7 0-128-57.3-128-128v-640c0-70.7 57.3-128 128-128h896c70.7 0 128 57.3 128 128v640c0 70.7-57.4 128-128 128zM1088 128c0-35.28-28.72-64-64-64h-896c-35.28 0-64 28.72-64 64v640c0 35.28 28.72 64 64 64h896c35.28 0 64-28.72 64-64v-640zM960 512h-256c-17.672 0-32-14.328-32-32s14.4-32 32-32h256c17.672 0 32 14.328 32 32s-14.4 32-32 32zM960 640h-256c-17.672 0-32-14.328-32-32s14.4-32 32-32h256c17.672 0 32 14.328 32 32s-14.4 32-32 32z" />
<glyph unicode="&#xe939;" glyph-name="address-book-7" data-tags="address-book-7" horiz-adv-x="1152" d="M1008 336h-288c-8.8 0-16-7.2-16-16s7.156-16 16-16h288c8.844 0 16 7.156 16 16s-7.2 16-16 16zM352 448c70.7 0 128 57.3 128 128s-57.3 128-128 128c-70.68 0-128-57.3-128-128s57.4-128 128-128zM352 672c53 0 96-43 96-96s-43-96-96-96-96 43-96 96 43 96 96 96zM1024 896h-896c-70.7 0-128-57.3-128-128v-640c0-70.7 57.3-128 128-128h896c70.7 0 128 57.3 128 128v640c0 70.7-57.4 128-128 128zM1120 128c0-53.020-42.98-96-96-96h-896c-53.020 0-96 42.98-96 96v640c0 53.020 42.98 96 96 96h896c53.020 0 96-42.98 96-96v-640zM1008 464h-288c-8.8 0-16-7.2-16-16s7.156-16 16-16h288c8.8 0 16 7.2 16 16s-7.2 16-16 16zM1008 592h-288c-8.8 0-16-7.2-16-16s7.156-16 16-16h288c8.8 0 16 7.2 16 16s-7.2 16-16 16zM416 384h-128c-88.22 0-160-71.8-160-160v-16c0-8.8 7.16-16 16-16s16 7.156 16 16v16c0 70.6 57.4 128 128 128h128c70.6 0 128-57.4 128-128v-16c0-8.8 7.2-16 16-16s16 7.2 16 16v16c0 88.2-71.8 160-160 160z" />
<glyph unicode="&#xe93a;" glyph-name="airbnb-0" data-tags="airbnb-0" horiz-adv-x="896" d="M448 213.76c-50.48 63.34-80.16 118.86-90 166.36-45.1 176 225.22 176 180.12 0-10.9-48.5-40.58-104-90-166.36zM724.3 67.3c-84.12-36.62-167.34 21.76-238.6 100.94 207.8 260.14 92.22 400-37.7 400-109.84 0-170.32-93.020-146.56-201 13.86-58.38 50.46-124.78 108.86-199-65.060-72.1-121.1-105.38-170.3-109.84-100-14.86-178.22 82.12-142.6 182.18 30.2 78.32 223.44 462.36 231.74 483.12 31.5 60.14 51.12 114.8 118.76 114.8 64.68 0 86.8-51.88 120.74-119.74 72-141.24 178.7-354.96 229.68-478.18 26.34-66.14-2.74-142.58-74.020-173.28zM818.3 339.54c-257.76 548.6-272.040 556.46-370.3 556.46-91.040 0-129.74-63.34-169.32-145.58-212.32-424.62-232.9-484.8-234.68-490.040-50.44-138.66 53.48-260.38 179.26-260.38 43.42 0 121.22 12.12 224.74 124.8 117.36-127.56 202.52-124.8 224.74-124.8 125.78-0.1 229.7 121.72 179.22 260.38 0.040 7.78-33.64 77.8-33.64 79.16z" />
<glyph unicode="&#xe93b;" glyph-name="air-conditioner-0" data-tags="air-conditioner-0" horiz-adv-x="1152" d="M1056 960h-960c-52.8 0-96-43.2-96-96v-256c0-52.8 43.2-96 96-96h960c52.8 0 96 43.2 96 96v256c0 52.8-43.2 96-96 96zM1024 640h-896v64h896v-64zM416 112c0-44.12-35.88-80-80-80s-80 35.8-80 80c0 32.76 19.624 61.88 50.040 74.18 24.56 9.938 36.4 37.94 26.46 62.5-9.968 24.56-37.84 36.32-62.54 26.5-66.76-26.98-109.96-89.38-109.96-163.18 0-97.060 78.94-176 176-176s176 78.94 176 176v336h-96v-336zM882 339.2c-24.68 9.812-52.56-1.937-62.54-26.5-9.938-24.56 1.906-52.56 26.46-62.5 30.48-12.4 50.080-41.4 50.080-74.2 0-44.12-35.88-80-80-80s-80 35.88-80 80v272h-96v-272c0-97.060 78.94-176 176-176s176 78.94 176 176c0 73.8-43.2 136.2-110 163.2z" />
<glyph unicode="&#xe93c;" glyph-name="air-conditioner-1" data-tags="air-conditioner-1" horiz-adv-x="1152" d="M928 704h-704c-17.6 0-32-14.4-32-32v-32c0-17.672 14.328-32 32-32h704c17.6 0 32 14.4 32 32v32c0 17.6-14.4 32-32 32zM1024 960h-896c-70.4 0-128-57.6-128-128v-256c0-70.4 57.6-128 128-128h896c70.4 0 128 57.6 128 128v256c0 70.4-57.6 128-128 128zM1056 576c0-17.344-14.652-32-32-32h-896c-17.34 0-32 14.6-32 32v256c0 17.344 14.656 32 32 32h896c17.348 0 32-14.656 32-32v-256zM416 112c0-44.12-35.88-80-80-80s-80 35.8-80 80c0 32.76 19.624 61.88 50.040 74.18 24.56 9.938 36.4 37.94 26.46 62.5-9.968 24.56-37.84 36.32-62.54 26.5-66.76-26.98-109.96-89.38-109.96-163.18 0-97.060 78.94-176 176-176s176 78.94 176 176v272h-96v-272zM882 339.2c-24.68 9.812-52.56-1.937-62.54-26.5-9.938-24.56 1.906-52.56 26.46-62.5 30.48-12.4 50.080-41.4 50.080-74.2 0-44.12-35.88-80-80-80s-80 35.88-80 80v208h-96v-208c0-97.060 78.94-176 176-176s176 78.94 176 176c0 73.8-43.2 136.2-110 163.2z" />
<glyph unicode="&#xe93d;" glyph-name="air-conditioner-2" data-tags="air-conditioner-2" horiz-adv-x="1152" d="M448 128c0-70.6-57.4-128-128-128-52.94 0-96 43.060-96 96s43 96 96 96c17.672 0 32 14.328 32 32s-14.4 32-32 32c-88.22 0-160-71.78-160-158.2s71.8-161.8 160-161.8c105.88 0 192 86.12 192 192v256h-64v-256zM832 320c-17.672 0-32-14.328-32-30.2s14.4-33.8 32-33.8c52.94 0 96-43.060 96-96s-43-96-96-96c-70.6 0-128 57.4-128 128v192h-64v-192c0-105.88 86.12-192 192-192 88.22 0 160 71.78 160 160s-71.8 160-160 160zM1024 960h-896c-70.4 0-128-57.6-128-128v-256c0-70.4 57.6-128 128-128h896c70.4 0 128 57.6 128 128v256c0 70.4-57.6 128-128 128zM1088 576c0-35.34-28.66-64-64-64h-896c-35.34 0-64 28.6-64 64v256c0 35.34 28.66 64 64 64h896c35.34 0 64-28.66 64-64v-256zM928 704h-704c-17.6 0-32-14.4-32-32s14.4-32 32-32h704c17.6 0 32 14.4 32 32s-14.4 32-32 32z" />
<glyph unicode="&#xe93e;" glyph-name="air-conditioner-3" data-tags="air-conditioner-3" horiz-adv-x="1152" d="M1024 960h-896c-70.7 0-128-57.3-128-128v-192c0-70.7 57.3-126.2 128-126.2h896c70.7 0 128 57.3 128 126.2v192c0 70.7-57.4 128-128 128zM1120 640c0-53.020-42.98-94.2-96-94.2h-896c-53.020 0-96 42.98-96 94.2v192c0 53.020 42.98 96 96 96h896c53.020 0 96-42.98 96-96v-192zM1008 704h-864c-8.844 0-16-7.156-16-16s7.156-16 16-16h864c8.844 0 16 7.156 16 16s-7.2 16-16 16zM496 448c-8.844 0-16-7.156-16-16v-320c0-79.4-64.6-144-144-144s-144 64.6-144 144v16c0 70.6 57.4 128 128 128 8.844 0 16 7.156 16 14.2s-7.156 16-16 16c-88.22 0-160-71.78-160-160v-15.998c0-97.060 78.94-176 176-176s176 78.94 176 176v321.798c0 8.8-7.2 16-16 16zM832 352c-8.844 0-16-7.156-16-16s7.156-14.2 16-14.2c70.6 0 128-57.4 128-128v-16c0-79.4-64.6-144-144-144s-144 64.6-144 144v256c0 8.844-7.156 16-16 16s-16-7.156-16-16v-254.2c0-97.060 78.94-176 176-176s176 78.94 176 176v15.998c0 84.602-71.8 156.402-160 156.402z" />
<glyph unicode="&#xe93f;" glyph-name="alarm-clock-0" data-tags="alarm-clock-0" d="M320 909.2l-290.28-242c-18.816 29.6-29.72 64.6-29.72 102.32 0 105.2 85.28 190.48 190.48 190.48 49.92 0 95.52-19.276 129.52-50.8zM243.8 25.2l-70.54-70.4c-25-25-65.52-25-90.52 0-24.98 25-24.98 65.4 0 90.4l70.46 70.4c-56.020 74.8-89.2 167.8-89.2 268.4 0 247.4 200.6 448 448 448s448-200.6 448-448c0-100.6-33.2-193.6-89.2-268.4l70.4-70.4c25-25 25-65.4 0-90.4s-65.4-25-90.4 0l-70.4 70.4c-74.8-56-167.8-89.2-268.4-89.2s-193.6 33.2-268.2 89.2zM560 592c0 26.6-21.4 48-48 48s-48-21.4-48-48v-208c0-12.8 5-25 14-32.2l96-96c18.8-20.4 49.2-20.4 66.2 0 20.4 17 20.4 47.4 0 66.2l-80.2 81.8v188.2zM994.2 667.2l-290.2 242c32.2 31.524 79.6 50.8 129.6 50.8 105.2 0 190.4-85.28 190.4-190.48 0-37.52-11-72.72-29.8-102.32z" />
</font>
</defs>
</svg>
